<?xml version="1.0" standalone="no"?>
<!DOCTYPE svg PUBLIC "-//W3C//DTD SVG 1.1//EN" "http://www.w3.org/Graphics/SVG/1.1/DTD/svg11.dtd" >
<svg xmlns="http://www.w3.org/2000/svg">
<metadata>
Created by FontPrep 20130207 at Tue Mar  8 14:47:10 2016
 By Ehsan Pouhadi
Copyright 2003 Process Type Foundry. All rights reserved.
</metadata>
<defs>
<font id="c10f620bfbfd23b3f98ee507e5a6166e" horiz-adv-x='1024' >
  <font-face 
    font-family="Lingua-Regular"
    font-weight="400"
    font-stretch="normal"
    units-per-em="2048"
    panose-1="2 0 5 6 2 0 0 2 0 4"
    ascent="1638"
    descent="-410"
    x-height="1024"
    cap-height="1434"
    bbox="-215 -438 3158 1843"
    underline-thickness="102"
    underline-position="-102"
    unicode-range="U+0020-FB06"
  />
<missing-glyph horiz-adv-x="1433" 
d="M322 106h729l-729 1135v-1135zM1112 1327h-731l731 -1134v1134zM215 0v1434h1004v-1434h-1004z" />
    <glyph glyph-name="ff" unicode="ff" horiz-adv-x="1536" 
d="M1505 1419h-268l-152 -151v-244h396v-76h-396v-948h-79v948h-652v-948h-80v948h-192v76h192v276l195 195h305v-76h-268l-152 -151v-244h652v276l194 195h305v-76z" />
    <glyph glyph-name="fi" unicode="fi" horiz-adv-x="1251" 
d="M1047 0h-78v950h-619v-950h-78v950h-190v74h190v276l193 195h299v-74h-264l-150 -151v-246h697v-1024zM1047 1210h-78v224h78v-224z" />
    <glyph glyph-name="fl" unicode="fl" horiz-adv-x="1417" 
d="M1010 1421h-506l-152 -151v-246h396v-74h-396v-950h-78v950h-192v74h192v276l193 195h623v-1268l184 -186l-55 -55l-209 209v1226z" />
    <glyph glyph-name="fj" unicode="fj" horiz-adv-x="1284" 
d="M1001 948h-649v-948h-80v948h-190v76h190v274l193 197h303v-76h-266l-150 -153v-242h727v-1098l-358 -364l-55 55l335 342v989zM1079 1208h-78v228h78v-228z" />
    <glyph glyph-name="ffi" unicode="ffi" horiz-adv-x="1998" 
d="M1794 0h-80v948h-624v-948h-80v948h-654v-948h-80v948h-194v76h194v276l195 195h307v-76h-270l-152 -151v-244h654v276l196 195h305v-76h-270l-151 -151v-244h704v-1024zM1794 1208h-80v226h80v-226z" />
    <glyph glyph-name="ffj" unicode="ffj" horiz-adv-x="2045" 
d="M1761 948h-669v-948h-82v948h-654v-948h-80v948h-194v76h194v274l195 197h307v-76h-270l-152 -153v-242h654v274l196 197h307v-76h-270l-151 -153v-242h749v-1098l-364 -364l-56 55l340 342v989zM1841 1208h-80v228h80v-228z" />
    <glyph glyph-name="ffl" unicode="ffl" horiz-adv-x="2174" 
d="M1765 1421h-520l-151 -153v-244h397v-76h-397v-948h-82v948h-656v-948h-80v948h-194v76h194v276l197 195h307v-76h-270l-154 -151v-244h656v276l196 195h637v-1268l187 -186l-56 -55l-211 209v1226z" />
    <glyph glyph-name=".notdef" horiz-adv-x="1433" 
d="M322 106h729l-729 1135v-1135zM1112 1327h-731l731 -1134v1134zM215 0v1434h1004v-1434h-1004z" />
    <glyph glyph-name=".null" horiz-adv-x="0" 
 />
    <glyph glyph-name="nonmarkingreturn" horiz-adv-x="681" 
 />
    <glyph glyph-name="space" unicode=" " horiz-adv-x="512" 
 />
    <glyph glyph-name="exclam" unicode="!" horiz-adv-x="507" 
d="M293 0h-78v164h78v-164zM215 1434h78v-656l-10 -454h-58l-10 454v656z" />
    <glyph glyph-name="quotedbl" unicode="&#x22;" horiz-adv-x="673" 
d="M262 1012h-67v422h67v-422zM479 1012h-67v422h67v-422z" />
    <glyph glyph-name="numbersign" unicode="#" horiz-adv-x="1499" 
d="M948 545v348h-397v-348h397zM1366 473h-342v-473h-76v473h-397v-473h-76v473h-342v72h342v348h-342v72h342v469h76v-469h397v469h76v-469h342v-72h-342v-348h342v-72z" />
    <glyph glyph-name="dollar" unicode="$" horiz-adv-x="1093" 
d="M582 55v-270h-78v270h-320v74h500l147 154v260l-147 151h-305l-191 197v291l191 196h149v271h78v-271h281v-73h-473l-148 -154v-229l148 -154h305l190 -195v-321l-190 -197h-137z" />
    <glyph glyph-name="percent" unicode="%" horiz-adv-x="1783" 
d="M731 963v280l-121 121h-241l-123 -123v-278l123 -123h241zM1536 190v281l-121 123h-241l-123 -123v-278l123 -123h241zM805 934l-162 -164h-305l-164 164v336l164 164h305l162 -164v-336zM1307 1364l-787 -1331l-61 37l788 1331zM1610 164l-164 -164h-305l-162 164v336
l162 164h305l164 -164v-336z" />
    <glyph glyph-name="ampersand" unicode="&#x26;" horiz-adv-x="1329" 
d="M977 209l-551 561h-2l-150 -152v-393l150 -151h420zM801 995v213l-150 152h-188l-150 -152v-213l150 -151h188zM993 664h78v-435l186 -190l-55 -55l-170 172l-153 -156h-492l-192 195v456l176 176l-138 138v274l193 195h262l193 -195v-274l-193 -195h-149l454 -477v371z
" />
    <glyph glyph-name="quotesingle" unicode="'" horiz-adv-x="456" 
d="M262 1012h-67v422h67v-422z" />
    <glyph glyph-name="parenleft" unicode="(" horiz-adv-x="583" 
d="M215 1366l234 231l53 -53l-209 -209v-1482l209 -209l-53 -54l-234 232v1544z" />
    <glyph glyph-name="parenright" unicode=")" horiz-adv-x="583" 
d="M135 1597l234 -231v-1544l-234 -232l-53 54l209 209v1482l-209 209z" />
    <glyph glyph-name="asterisk" unicode="*" horiz-adv-x="892" 
d="M446 1057q12 0 19 2v-252h-37v252q6 -2 18 -2zM446 1184q-12 0 -18 -2v252h37v-252q-7 2 -19 2zM510 1120q0 12 -2 19h252v-37h-252q2 6 2 18zM383 1120q0 -12 2 -18h-252v37h252q-2 -7 -2 -19zM475 1063q14 8 27 27l180 -179l-27 -26zM389 1090q10 -16 27 -27l-178 -178
l-27 26zM502 1149q-8 18 -27 27l180 180l27 -27zM211 1329l27 27l178 -180q-18 -12 -27 -27z" />
    <glyph glyph-name="plus" unicode="+" horiz-adv-x="1146" 
d="M1034 528h-424v-426h-73v426h-424v70h424v426h73v-426h424v-70z" />
    <glyph glyph-name="comma" unicode="," horiz-adv-x="434" 
d="M182 164h78v-164l-76 -244l-71 23l69 223v162z" />
    <glyph glyph-name="hyphen" unicode="-" horiz-adv-x="788" 
d="M676 541h-563v69h563v-69z" />
    <glyph glyph-name="period" unicode="." horiz-adv-x="487" 
d="M283 0h-78v164h78v-164z" />
    <glyph glyph-name="slash" unicode="/" horiz-adv-x="1007" 
d="M895 1536l-713 -1849l-69 26l712 1850z" />
    <glyph glyph-name="zero" unicode="0" horiz-adv-x="1226" 
d="M932 1206l-146 152h-346l-145 -152v-979l145 -151h346l146 151v979zM821 0h-415l-191 195v1044l191 195h415l191 -195v-1044z" />
    <glyph glyph-name="one" unicode="1" horiz-adv-x="993" 
d="M133 0v76h340v1282h-340v76h420v-1358h338v-76h-758z" />
    <glyph glyph-name="two" unicode="2" horiz-adv-x="1122" 
d="M180 1358v76h545l190 -195v-213l-653 -950h676v-76h-754l-30 57l682 996v153l-148 152h-508z" />
    <glyph glyph-name="three" unicode="3" horiz-adv-x="1079" 
d="M143 0v76h496l145 151v316l-145 151h-412v74h412l145 152v286l-145 152h-457v76h492l190 -195v-352l-153 -156l153 -158v-378l-190 -195h-531z" />
    <glyph glyph-name="four" unicode="4" horiz-adv-x="1153" 
d="M819 401v-401h-80v401h-637v58l336 985l72 -23l-322 -944h551v420h80v-420h262v-76h-262z" />
    <glyph glyph-name="five" unicode="5" horiz-adv-x="1087" 
d="M174 0v76h494l145 151v316l-145 151h-471v740h673v-76h-594v-588h426l191 -195v-380l-191 -195h-528z" />
    <glyph glyph-name="six" unicode="6" horiz-adv-x="1171" 
d="M918 571l-146 150h-151l-326 -334v-160l145 -151h332l146 151v344zM893 1434v-76h-453l-145 -152v-706l289 297h223l190 -195v-407l-190 -195h-401l-191 195v1044l191 195h487z" />
    <glyph glyph-name="seven" unicode="7" horiz-adv-x="933" 
d="M51 1358v76h762l29 -56l-568 -1392l-71 28l549 1344h-701z" />
    <glyph glyph-name="eight" unicode="8" horiz-adv-x="1220" 
d="M926 555l-146 152h-340l-145 -152v-328l145 -151h340l146 151v328zM926 1206l-146 152h-340l-145 -152v-272l145 -152h340l146 152v272zM815 0h-409l-191 195v391l154 157l-154 156v340l191 195h409l191 -195v-340l-154 -156l154 -157v-391z" />
    <glyph glyph-name="nine" unicode="9" horiz-adv-x="1161" 
d="M866 1206l-145 152h-332l-145 -152v-383l145 -149h152l325 332v200zM268 0v76h453l145 151v666l-288 -295h-224l-190 195v446l190 195h402l190 -195v-1044l-190 -195h-488z" />
    <glyph glyph-name="colon" unicode=":" horiz-adv-x="487" 
d="M283 752h-78v163h78v-163zM283 0h-78v164h78v-164z" />
    <glyph glyph-name="semicolon" unicode=";" horiz-adv-x="454" 
d="M182 164h78v-164l-76 -244l-71 23l69 223v162zM260 752h-78v163h78v-163z" />
    <glyph glyph-name="less" unicode="&#x3c;" horiz-adv-x="974" 
d="M770 43l-43 -59l-645 505v46l645 505l43 -59l-598 -469z" />
    <glyph glyph-name="equal" unicode="=" horiz-adv-x="950" 
d="M838 397h-725v64h725v-64zM838 674h-725v63h725v-63z" />
    <glyph glyph-name="greater" unicode="&#x3e;" horiz-adv-x="974" 
d="M893 489l-645 -505l-43 59l598 469l-598 469l43 59l645 -505v-46z" />
    <glyph glyph-name="question" unicode="?" horiz-adv-x="997" 
d="M426 0h-78v164h78v-164zM184 1360v74h461l189 -195v-293l-426 -629l-62 50l412 606l-2 235l-146 152h-426z" />
    <glyph glyph-name="at" unicode="@" horiz-adv-x="1337" 
d="M1075 926h-397l-150 -152v-90l150 -152h67l330 334v60zM1153 459h-78v297l-295 -297h-137l-192 194v152l192 194h432v209l-149 152h-504l-150 -152v-983l150 -151h639v-74h-674l-192 195v1044l192 195h574l192 -195v-780z" />
    <glyph glyph-name="A" unicode="A" horiz-adv-x="1372" 
d="M686 1311l-301 -819h602zM1176 -12l-160 426h-660l-159 -426l-74 24l534 1422h58l534 -1422z" />
    <glyph glyph-name="B" unicode="B" horiz-adv-x="1280" 
d="M295 694v-618h594l147 151v316l-147 151h-594zM295 1358v-590h594l147 152v286l-147 152h-594zM215 0v1434h709l192 -195v-352l-155 -156l155 -158v-378l-192 -195h-709z" />
    <glyph glyph-name="C" unicode="C" horiz-adv-x="1191" 
d="M1034 1434v-76h-612l-148 -152v-979l148 -151h616v-76h-653l-190 195v1044l190 195h649z" />
    <glyph glyph-name="D" unicode="D" horiz-adv-x="1308" 
d="M295 1358v-1282h592l147 151v979l-147 152h-592zM215 0v1434h707l192 -195v-1044l-192 -195h-707z" />
    <glyph glyph-name="E" unicode="E" horiz-adv-x="1187" 
d="M215 0v1434h827v-76h-747v-570h594v-75h-594v-637h760v-76h-840z" />
    <glyph glyph-name="F" unicode="F" horiz-adv-x="1110" 
d="M295 1358v-570h602v-75h-602v-713h-80v1434h834v-76h-754z" />
    <glyph glyph-name="G" unicode="G" horiz-adv-x="1280" 
d="M1067 1434v-76h-645l-148 -152v-979l148 -151h457l147 151v375h-397v76h477v-483l-193 -195h-526l-192 195v1044l192 195h680z" />
    <glyph glyph-name="H" unicode="H" horiz-adv-x="1376" 
d="M1081 0v711h-786v-711h-80v1434h80v-648h786v648h80v-1434h-80z" />
    <glyph glyph-name="I" unicode="I" horiz-adv-x="530" 
d="M225 0v1434h80v-1434h-80z" />
    <glyph glyph-name="J" unicode="J" horiz-adv-x="555" 
d="M260 1434h80v-1508l-336 -364l-55 53l311 342v1477z" />
    <glyph glyph-name="K" unicode="K" horiz-adv-x="1280" 
d="M295 680v-680h-80v1434h80v-680h297l477 692l64 -45l-469 -684l466 -684l-63 -45l-475 692h-297z" />
    <glyph glyph-name="L" unicode="L" horiz-adv-x="1148" 
d="M215 0v1434h80v-1358h752v-76h-832z" />
    <glyph glyph-name="M" unicode="M" horiz-adv-x="1548" 
d="M1253 0v1245l-450 -862h-58l-450 862v-1245h-80v1434h72l487 -940l488 940h71v-1434h-80z" />
    <glyph glyph-name="N" unicode="N" horiz-adv-x="1382" 
d="M295 0h-80v1415l68 33l804 -1298v1284h80v-1416l-67 -32l-805 1298v-1284z" />
    <glyph glyph-name="O" unicode="O" 
d="M1077 1206l-147 152h-508l-148 -152v-979l148 -151h508l147 151v979zM965 0h-578l-192 195v1044l192 195h578l192 -195v-1044z" />
    <glyph glyph-name="P" unicode="P" horiz-adv-x="1224" 
d="M295 1358v-619h610l148 152v315l-148 152h-610zM295 664v-664h-80v1434h725l193 -195v-381l-193 -194h-645z" />
    <glyph glyph-name="Q" unicode="Q" horiz-adv-x="1331" 
d="M1057 1206l-148 152h-487l-148 -152v-981l148 -149h487l148 149v981zM1051 -301l-465 100l18 68l463 -100zM944 0h-557l-192 197v1040l192 197h557l193 -197v-1040z" />
    <glyph glyph-name="R" unicode="R" 
d="M295 1358v-619h612l148 152v315l-148 152h-612zM295 664v-664h-80v1434h727l193 -195v-381l-193 -194h-151l428 -633l-66 -45l-459 678h-399z" />
    <glyph glyph-name="S" unicode="S" horiz-adv-x="1230" 
d="M184 0v76h635l148 151v316l-148 151h-440l-191 195v350l191 195h645v-76h-608l-148 -152v-284l148 -152h440l191 -195v-380l-191 -195h-672z" />
    <glyph glyph-name="T" unicode="T" horiz-adv-x="1103" 
d="M592 1358v-1358h-80v1358h-481v76h1042v-76h-481z" />
    <glyph glyph-name="U" unicode="U" 
d="M205 1434h80v-1207l147 -151h488l147 151v1207h80v-1239l-193 -195h-557l-192 195v1239z" />
    <glyph glyph-name="V" unicode="V" horiz-adv-x="1208" 
d="M633 0h-58l-524 1421l76 25l477 -1303l477 1303l76 -25z" />
    <glyph glyph-name="W" unicode="W" horiz-adv-x="1779" 
d="M1337 0h-69l-379 1288l-377 -1288h-70l-340 1427l78 19l299 -1301l375 1289h70l374 -1289l301 1301l78 -19z" />
    <glyph glyph-name="X" unicode="X" horiz-adv-x="1292" 
d="M1092 -16l-447 669l-444 -669l-68 45l465 696l-453 680l66 45l434 -653l436 653l66 -45l-453 -680l465 -696z" />
    <glyph glyph-name="Y" unicode="Y" horiz-adv-x="1204" 
d="M641 0h-78v580l-512 829l68 41l483 -793l483 793l68 -41l-512 -829v-580z" />
    <glyph glyph-name="Z" unicode="Z" horiz-adv-x="1331" 
d="M203 1356v78h897l30 -58l-827 -1298h854v-78h-930l-32 57l829 1299h-821z" />
    <glyph glyph-name="bracketleft" unicode="[" horiz-adv-x="628" 
d="M578 -307h-363v1904h363v-73h-285v-1757h285v-74z" />
    <glyph glyph-name="backslash" unicode="\" horiz-adv-x="1007" 
d="M895 -287l-70 -26l-712 1849l69 27z" />
    <glyph glyph-name="bracketright" unicode="]" horiz-adv-x="628" 
d="M414 -307h-363v74h285v1757h-285v73h363v-1904z" />
    <glyph glyph-name="asciicircum" unicode="^" horiz-adv-x="864" 
d="M711 1053l-56 -33l-223 340l-221 -340l-57 33l254 381h49z" />
    <glyph glyph-name="underscore" unicode="_" horiz-adv-x="821" 
d="M831 -29h-841v29h841v-29z" />
    <glyph glyph-name="grave" unicode="`" horiz-adv-x="704" 
d="M489 1233l-43 -53l-272 188l45 55z" />
    <glyph glyph-name="a" unicode="a" horiz-adv-x="1099" 
d="M836 483h-496l-147 -151v-109l147 -147h170l326 327v80zM836 0v293l-291 -293h-242l-190 193v169l190 193h533v246l-148 147h-489v76h526l190 -193v-831h-79z" />
    <glyph glyph-name="b" unicode="b" horiz-adv-x="1171" 
d="M918 799l-148 149h-170l-326 -334v-387l148 -151h348l148 151v572zM195 1434h79v-707l291 297h242l190 -197v-632l-190 -195h-422l-190 195v1239z" />
    <glyph glyph-name="c" unicode="c" horiz-adv-x="954" 
d="M805 1024v-76h-408l-143 -147v-578l143 -147h424v-76h-459l-188 193v638l188 193h443z" />
    <glyph glyph-name="d" unicode="d" horiz-adv-x="1181" 
d="M897 799l-147 149h-349l-147 -149v-572l147 -151h170l326 332v391zM897 0v297l-291 -297h-241l-191 195v632l191 197h421l111 -115v525h80v-1434h-80z" />
    <glyph glyph-name="e" unicode="e" horiz-adv-x="1054" 
d="M254 563h494l145 150v88l-145 147h-349l-145 -147v-238zM254 489v-266l145 -147h455v-76h-489l-191 193v638l191 193h417l191 -193v-147l-191 -195h-528z" />
    <glyph glyph-name="f" unicode="f" horiz-adv-x="784" 
d="M348 1024h383v-76h-383v-948h-80v948h-186v76h186v276l191 195h295v-76h-260l-146 -151v-244z" />
    <glyph glyph-name="g" unicode="g" horiz-adv-x="1181" 
d="M897 616l-326 332h-170l-147 -151v-531l147 -149h349l147 149v350zM283 -410v76h467l147 152v336l-111 -113h-421l-191 195v593l191 195h241l291 -297v297h80v-1239l-191 -195h-503z" />
    <glyph glyph-name="h" unicode="h" horiz-adv-x="1202" 
d="M928 0v799l-148 149h-170l-325 -334v-614h-80v1434h80v-707l290 297h242l191 -197v-827h-80z" />
    <glyph glyph-name="i" unicode="i" horiz-adv-x="489" 
d="M205 0v1024h80v-1024h-80zM205 1210v224h80v-224h-80z" />
    <glyph glyph-name="j" unicode="j" horiz-adv-x="657" 
d="M373 948h-312v76h392v-1098l-334 -356l-51 55l305 330v993zM371 1210v224h80v-224h-80z" />
    <glyph glyph-name="k" unicode="k" horiz-adv-x="1021" 
d="M285 479v-479h-80v1434h80v-877h233l328 483l65 -45l-329 -477l338 -489l-66 -45l-336 495h-233z" />
    <glyph glyph-name="l" unicode="l" horiz-adv-x="587" 
d="M205 1434h80v-1215l159 -182l-57 -53l-182 204v1246z" />
    <glyph glyph-name="m" unicode="m" horiz-adv-x="1916" 
d="M1642 0v801l-153 147h-150l-335 -330v-618h-80v801l-154 147h-152l-333 -327v-621h-80v1024h80v-293l297 293h227l195 -193v-100l299 293h225l194 -193v-831h-80z" />
    <glyph glyph-name="n" unicode="n" horiz-adv-x="1202" 
d="M928 0v801l-148 147h-170l-325 -327v-621h-80v1024h80v-293l290 293h242l191 -193v-831h-80z" />
    <glyph glyph-name="o" unicode="o" horiz-adv-x="1146" 
d="M893 801l-145 147h-349l-145 -147v-578l145 -147h349l145 147v578zM782 0h-417l-191 193v638l191 193h417l191 -193v-638z" />
    <glyph glyph-name="p" unicode="p" horiz-adv-x="1181" 
d="M928 797l-148 151h-170l-325 -332v-391l147 -149h348l148 149v572zM285 -410h-80v1434h80v-297l290 297h242l191 -195v-632l-191 -197h-422l-110 115v-525z" />
    <glyph glyph-name="q" unicode="q" horiz-adv-x="1161" 
d="M897 797l-147 151h-349l-147 -151v-572l147 -149h170l326 334v387zM897 -410v707l-291 -297h-241l-191 197v632l191 195h421l191 -195v-1239h-80z" />
    <glyph glyph-name="r" unicode="r" horiz-adv-x="829" 
d="M285 0h-80v1024h80v-293l286 293h238v-76h-203l-321 -327v-621z" />
    <glyph glyph-name="s" unicode="s" horiz-adv-x="985" 
d="M154 0v76h493l146 147v105l-146 151h-301l-188 193v159l188 193h504v-76h-467l-145 -147v-96l145 -150h299l190 -193v-169l-190 -193h-528z" />
    <glyph glyph-name="t" unicode="t" horiz-adv-x="890" 
d="M299 948h-268v76h268v279h80v-279h414v-76h-414v-715l151 -157h269v-76h-303l-197 201v747z" />
    <glyph glyph-name="u" unicode="u" horiz-adv-x="1202" 
d="M918 0v293l-291 -293h-242l-190 193v831h79v-801l148 -147h170l326 327v621h79v-1024h-79z" />
    <glyph glyph-name="v" unicode="v" horiz-adv-x="921" 
d="M489 0h-57l-412 1012l74 24l367 -913l366 913l74 -24z" />
    <glyph glyph-name="w" unicode="w" horiz-adv-x="1396" 
d="M1069 0h-68l-303 895l-303 -895h-67l-256 1020l78 16l217 -882l297 870h69l297 -870l217 882l78 -16z" />
    <glyph glyph-name="x" unicode="x" horiz-adv-x="989" 
d="M842 -16l-348 465l-347 -465l-65 47l362 485l-356 477l64 47l342 -458l344 458l63 -47l-356 -477l362 -485z" />
    <glyph glyph-name="y" unicode="y" horiz-adv-x="921" 
d="M78 -410v76h198l144 352l-400 994l74 24l367 -921l366 921l78 -24l-581 -1422h-246z" />
    <glyph glyph-name="z" unicode="z" horiz-adv-x="1001" 
d="M154 948v76h682l30 -57l-624 -891h647v-76h-725l-31 57l625 891h-604z" />
    <glyph glyph-name="braceleft" unicode="{" horiz-adv-x="610" 
d="M641 -410h-205l-188 197v616l-156 164v54l156 163v617l188 196h205v-73h-170l-145 -154v-618l-156 -158l156 -158v-618l145 -154h170v-74z" />
    <glyph glyph-name="bar" unicode="|" horiz-adv-x="493" 
d="M279 -410h-64v2007h64v-2007z" />
    <glyph glyph-name="braceright" unicode="}" horiz-adv-x="610" 
d="M-31 -410v74h170l146 154v618l155 158l-155 158v618l-146 154h-170v73h205l188 -196v-617l156 -163v-54l-156 -164v-616l-188 -197h-205z" />
    <glyph glyph-name="asciitilde" unicode="~" horiz-adv-x="929" 
d="M827 627l-256 -127l-213 106l-221 -110l-35 55l256 127l213 -107l222 111z" />
    <glyph glyph-name="exclamdown" unicode="&#xa1;" horiz-adv-x="507" 
d="M215 1434h78v-164h-78v164zM293 0h-78v655l10 455h58l10 -455v-655z" />
    <glyph glyph-name="cent" unicode="&#xa2;" horiz-adv-x="954" 
d="M821 0h-217v-244h-78v244h-164l-188 195v634l188 195h164v242h78v-242h201v-74h-408l-145 -151v-574l145 -151h424v-74z" />
    <glyph glyph-name="sterling" unicode="&#xa3;" horiz-adv-x="1173" 
d="M999 0h-886v74h184l149 153v576h-219v74h219v362l191 195h352v-74h-315l-150 -152v-331h447v-74h-447v-608l-116 -121h591v-74z" />
    <glyph glyph-name="currency" unicode="&#xa4;" horiz-adv-x="1304" 
d="M1151 0h-659l-193 195v362h-197v68h197v186h-197v68h197v360l193 195h655v-74h-619l-149 -152v-329h500v-68h-500v-186h500v-68h-500v-332l149 -151h623v-74z" />
    <glyph glyph-name="yen" unicode="&#xa5;" horiz-adv-x="1204" 
d="M971 758v-72h-262l-68 -106v-64h330v-72h-330v-444h-78v444h-330v72h330v64l-67 106h-263v72h220l-402 651l66 41l485 -788l485 788l66 -41l-401 -651h219z" />
    <glyph glyph-name="brokenbar" unicode="&#xa6;" horiz-adv-x="534" 
d="M299 -410h-63v887h63v-887zM299 711h-63v886h63v-886z" />
    <glyph glyph-name="section" unicode="&#xa7;" horiz-adv-x="1124" 
d="M834 508v160l-148 151h-248l-147 -151v-160l147 -152h248zM211 -264v74h494l147 151v166l-147 154h-302l-190 194v225l143 148l-161 168v221l190 197h502v-74h-467l-148 -152v-159l148 -154h301l190 -195v-225l-143 -147l162 -168v-228l-191 -196h-528z" />
    <glyph glyph-name="dieresis" unicode="&#xa8;" horiz-adv-x="731" 
d="M272 1217h-77v135h77v-135zM537 1217h-78v135h78v-135z" />
    <glyph glyph-name="copyright" unicode="&#xa9;" horiz-adv-x="1452" 
d="M938 350h-350l-103 107v538l103 107h348v-58h-322l-69 -71v-496l69 -71h324v-56zM1182 201v1032l-127 129h-656l-129 -129v-1032l129 -129h656zM1257 170l-170 -170h-722l-170 170v1094l170 170h722l170 -170v-1094z" />
    <glyph glyph-name="ordfeminine" unicode="&#xaa;" horiz-adv-x="690" 
d="M461 1167h-211l-62 -63v-43l62 -62h67l144 144v24zM516 946h-55v121l-119 -121h-117l-92 94v86l92 95h236v98l-62 61h-227v54h252l92 -95v-393z" />
    <glyph glyph-name="guillemotleft" unicode="&#xab;" horiz-adv-x="980" 
d="M524 135l-53 -47l-358 426l358 426l53 -47l-317 -379zM827 135l-55 -47l-356 426l356 426l55 -47l-319 -379z" />
    <glyph glyph-name="logicalnot" unicode="&#xac;" horiz-adv-x="1005" 
d="M801 266h-78v309h-580v70h658v-379z" />
    <glyph glyph-name="registered" unicode="&#xae;" horiz-adv-x="1452" 
d="M557 1042v-294h301l70 69v154l-70 71h-301zM557 688v-338h-59v752h385l104 -107v-200l-104 -107h-64l215 -317l-49 -33l-237 350h-191zM1182 201v1032l-127 129h-656l-129 -129v-1032l129 -129h656zM1257 170l-170 -170h-722l-170 170v1094l170 170h722l170 -170v-1094z
" />
    <glyph glyph-name="macron" unicode="&#xaf;" horiz-adv-x="806" 
d="M643 1315h-479v33h479v-33z" />
    <glyph glyph-name="degree" unicode="&#xb0;" horiz-adv-x="608" 
d="M420 1178v137l-64 67h-102l-66 -67v-137l66 -68h102zM475 1157l-94 -98h-152l-96 98v178l96 99h152l94 -99v-178z" />
    <glyph glyph-name="plusminus" unicode="&#xb1;" horiz-adv-x="1146" 
d="M1034 0h-921v76h424v448h-424v74h424v426h73v-426h424v-74h-424v-448h424v-76z" />
    <glyph glyph-name="twosuperior" unicode="&#xb2;" horiz-adv-x="1822" 
d="M1649 696h-697v-696h-737v1434h1434v-738z" />
    <glyph glyph-name="threesuperior" unicode="&#xb3;" horiz-adv-x="1822" 
d="M1649 696h-697v-696h-737v1434h1434v-738z" />
    <glyph glyph-name="acute" unicode="&#xb4;" horiz-adv-x="696" 
d="M522 1370l-272 -192l-35 55l270 190z" />
    <glyph glyph-name="mu" unicode="&#xb5;" horiz-adv-x="1202" 
d="M997 0h-77v299l-293 -299h-242l-113 117v-527h-77v1434h77v-799l150 -151h170l328 336v614h77v-1024z" />
    <glyph glyph-name="paragraph" unicode="&#xb6;" horiz-adv-x="1003" 
d="M457 926v434h-138l-149 -154v-127l149 -153h138zM1065 -410h-195l-192 197v1573h-143v-1360h-78v852h-172l-193 197v188l193 197h471v-1616l149 -154h160v-74z" />
    <glyph glyph-name="periodcentered" unicode="&#xb7;" horiz-adv-x="487" 
d="M283 530h-78v164h78v-164z" />
    <glyph glyph-name="cedilla" unicode="&#xb8;" horiz-adv-x="708" 
d="M164 -354v69h166l141 142v163h74v-194l-180 -180h-201z" />
    <glyph glyph-name="onesuperior" unicode="&#xb9;" horiz-adv-x="1822" 
d="M1649 696h-697v-696h-737v1434h1434v-738z" />
    <glyph glyph-name="ordmasculine" unicode="&#xba;" horiz-adv-x="729" 
d="M500 1061v258l-62 61h-149l-62 -61v-258l62 -62h149zM555 1040l-92 -94h-197l-92 94v299l92 95h197l92 -95v-299z" />
    <glyph glyph-name="guillemotright" unicode="&#xbb;" horiz-adv-x="980" 
d="M565 514l-356 -426l-55 47l319 379l-319 379l55 47zM868 514l-358 -426l-53 47l317 379l-317 379l53 47z" />
    <glyph glyph-name="onequarter" unicode="&#xbc;" horiz-adv-x="1822" 
d="M1649 696h-697v-696h-737v1434h1434v-738z" />
    <glyph glyph-name="onehalf" unicode="&#xbd;" horiz-adv-x="1822" 
d="M1649 696h-697v-696h-737v1434h1434v-738z" />
    <glyph glyph-name="threequarters" unicode="&#xbe;" horiz-adv-x="1822" 
d="M1649 696h-697v-696h-737v1434h1434v-738z" />
    <glyph glyph-name="questiondown" unicode="&#xbf;" horiz-adv-x="997" 
d="M571 1434h78v-164h-78v164zM813 74v-74h-461l-188 195v292l426 629l61 -49l-411 -606l2 -236l145 -151h426z" />
    <glyph glyph-name="Agrave" unicode="&#xc0;" horiz-adv-x="1372" 
d="M686 1311l-301 -819h602zM1176 -12l-160 426h-660l-159 -426l-74 24l534 1422h58l534 -1422zM713 1642l-43 -53l-273 189l45 55z" />
    <glyph glyph-name="Aacute" unicode="&#xc1;" horiz-adv-x="1372" 
d="M686 1311l-301 -819h602zM1176 -12l-160 426h-660l-159 -426l-74 24l534 1422h58l534 -1422zM961 1780l-273 -193l-35 55l271 191z" />
    <glyph glyph-name="Acircumflex" unicode="&#xc2;" horiz-adv-x="1372" 
d="M686 1311l-301 -819h602zM1176 -12l-160 426h-660l-159 -426l-74 24l534 1422h58l534 -1422zM924 1595l-45 -51l-191 162l-190 -162l-45 51l215 183h41z" />
    <glyph glyph-name="Atilde" unicode="&#xc3;" horiz-adv-x="1372" 
d="M686 1311l-301 -819h602zM1176 -12l-160 426h-660l-159 -426l-74 24l534 1422h58l534 -1422zM895 1688l-160 -78l-133 63l-135 -67l-29 49l164 80l133 -62l135 62z" />
    <glyph glyph-name="Adieresis" unicode="&#xc4;" horiz-adv-x="1372" 
d="M686 1311l-301 -819h602zM1176 -12l-160 426h-660l-159 -426l-74 24l534 1422h58l534 -1422zM594 1575h-78v135h78v-135zM858 1575h-78v135h78v-135z" />
    <glyph glyph-name="Aring" unicode="&#xc5;" horiz-adv-x="1372" 
d="M686 1311l-301 -819h602zM1176 -12l-160 426h-660l-159 -426l-74 24l534 1422h58l534 -1422zM766 1661v65l-64 62h-43l-65 -62v-65l65 -62h43zM823 1642l-96 -98h-92l-98 98v103l98 98h92l96 -98v-103z" />
    <glyph glyph-name="AE" unicode="&#xc6;" horiz-adv-x="1873" 
d="M1001 489l-307 811l-307 -811h614zM1741 0h-555l-156 414h-672l-161 -426l-74 24l539 1422h1067v-74h-981l223 -574h600v-73h-572l240 -639h502v-74z" />
    <glyph glyph-name="Ccedilla" unicode="&#xc7;" horiz-adv-x="1191" 
d="M1034 1434v-76h-612l-148 -152v-979l148 -151h616v-76h-344v-174l-180 -180h-201v69h166l142 142v143h-236l-190 195v1044l190 195h649z" />
    <glyph glyph-name="Egrave" unicode="&#xc8;" horiz-adv-x="1187" 
d="M215 0v1434h827v-76h-747v-570h594v-75h-594v-637h760v-76h-840zM653 1642l-43 -53l-272 189l45 55z" />
    <glyph glyph-name="Eacute" unicode="&#xc9;" horiz-adv-x="1187" 
d="M215 0v1434h827v-76h-747v-570h594v-75h-594v-637h760v-76h-840zM829 1780l-272 -193l-35 55l271 191z" />
    <glyph glyph-name="Ecircumflex" unicode="&#xca;" horiz-adv-x="1187" 
d="M215 0v1434h827v-76h-747v-570h594v-75h-594v-637h760v-76h-840zM870 1595l-45 -51l-190 162l-191 -162l-45 51l215 183h41z" />
    <glyph glyph-name="Edieresis" unicode="&#xcb;" horiz-adv-x="1187" 
d="M215 0v1434h827v-76h-747v-570h594v-75h-594v-637h760v-76h-840zM555 1575h-78v135h78v-135zM819 1575h-78v135h78v-135z" />
    <glyph glyph-name="Igrave" unicode="&#xcc;" horiz-adv-x="530" 
d="M274 1642l-43 -53l-272 189l45 55zM215 0v1434h80v-1434h-80z" />
    <glyph glyph-name="Iacute" unicode="&#xcd;" horiz-adv-x="530" 
d="M504 1780l-273 -193l-34 55l270 191zM215 0v1434h80v-1434h-80z" />
    <glyph glyph-name="Icircumflex" unicode="&#xce;" horiz-adv-x="530" 
d="M492 1595l-46 -51l-190 162l-190 -162l-46 51l216 183h40zM215 0v1434h80v-1434h-80z" />
    <glyph glyph-name="Idieresis" unicode="&#xcf;" horiz-adv-x="530" 
d="M176 1575h-78v135h78v-135zM440 1575h-78v135h78v-135zM229 0v1434h80v-1434h-80z" />
    <glyph glyph-name="Eth" unicode="&#xd0;" horiz-adv-x="1398" 
d="M379 1360v-574h239v-75h-239v-637h598l149 151v983l-149 152h-598zM301 0v711h-209v75h209v648h711l192 -195v-1044l-192 -195h-711z" />
    <glyph glyph-name="Ntilde" unicode="&#xd1;" horiz-adv-x="1382" 
d="M295 0h-80v1415l68 33l804 -1298v1284h80v-1416l-67 -32l-805 1298v-1284zM928 1688l-160 -78l-133 63l-135 -67l-29 49l164 80l133 -62l135 62z" />
    <glyph glyph-name="Ograve" unicode="&#xd2;" horiz-adv-x="1372" 
d="M684 1642l-43 -53l-272 189l45 55zM1087 1206l-147 152h-508l-147 -152v-979l147 -151h508l147 151v979zM975 0h-578l-192 195v1044l192 195h578l192 -195v-1044z" />
    <glyph glyph-name="Oacute" unicode="&#xd3;" 
d="M1077 1206l-147 152h-508l-148 -152v-979l148 -151h508l147 151v979zM965 0h-578l-192 195v1044l192 195h578l192 -195v-1044zM915 1780l-272 -193l-35 55l271 191z" />
    <glyph glyph-name="Ocircumflex" unicode="&#xd4;" 
d="M1077 1206l-147 152h-508l-148 -152v-979l148 -151h508l147 151v979zM965 0h-578l-192 195v1044l192 195h578l192 -195v-1044zM922 1595l-45 -51l-191 162l-190 -162l-45 51l215 183h41z" />
    <glyph glyph-name="Otilde" unicode="&#xd5;" 
d="M1077 1206l-147 152h-508l-148 -152v-979l148 -151h508l147 151v979zM965 0h-578l-192 195v1044l192 195h578l192 -195v-1044zM907 1688l-159 -78l-134 63l-135 -67l-28 49l163 80l134 -62l135 62z" />
    <glyph glyph-name="Odieresis" unicode="&#xd6;" 
d="M1077 1206l-147 152h-508l-148 -152v-979l148 -151h508l147 151v979zM965 0h-578l-192 195v1044l192 195h578l192 -195v-1044zM573 1575h-77v135h77v-135zM838 1575h-78v135h78v-135z" />
    <glyph glyph-name="multiply" unicode="&#xd7;" horiz-adv-x="958" 
d="M825 268l-51 -51l-295 293l-295 -293l-51 51l293 295l-293 295l51 51l295 -293l295 293l51 -51l-293 -295z" />
    <glyph glyph-name="Oslash" unicode="&#xd8;" horiz-adv-x="1388" 
d="M1100 225v983l-35 35l-684 -1106l61 -63h508zM1010 1298l-60 62h-508l-149 -152v-983l33 -32zM1214 1483l-106 -172l72 -70v-1048l-195 -195h-579l-68 70l-98 -158l-66 41l107 172l-68 70v1048l193 195h579l68 -68l96 156z" />
    <glyph glyph-name="Ugrave" unicode="&#xd9;" 
d="M205 1434h80v-1207l147 -151h488l147 151v1207h80v-1239l-193 -195h-557l-192 195v1239zM719 1642l-43 -53l-273 189l46 55z" />
    <glyph glyph-name="Uacute" unicode="&#xda;" 
d="M881 1780l-273 -193l-35 55l271 191zM195 1434h79v-1207l148 -151h487l148 151v1207h80v-1239l-193 -195h-557l-192 195v1239z" />
    <glyph glyph-name="Ucircumflex" unicode="&#xdb;" 
d="M205 1434h80v-1207l147 -151h488l147 151v1207h80v-1239l-193 -195h-557l-192 195v1239zM915 1595l-45 -51l-190 162l-191 -162l-45 51l215 183h41z" />
    <glyph glyph-name="Udieresis" unicode="&#xdc;" 
d="M205 1434h80v-1207l147 -151h488l147 151v1207h80v-1239l-193 -195h-557l-192 195v1239zM571 1575h-77v135h77v-135zM836 1575h-78v135h78v-135z" />
    <glyph glyph-name="Yacute" unicode="&#xdd;" horiz-adv-x="1204" 
d="M641 0h-78v580l-512 829l68 41l483 -793l483 793l68 -41l-512 -829v-580zM850 1780l-272 -193l-35 55l270 191z" />
    <glyph glyph-name="Thorn" unicode="&#xde;" horiz-adv-x="1224" 
d="M293 1047v-582h612l150 151v279l-150 152h-612zM293 391v-391h-78v1434h78v-314h647l193 -194v-340l-193 -195h-647z" />
    <glyph glyph-name="germandbls" unicode="&#xdf;" horiz-adv-x="1230" 
d="M535 0v74h385l149 151v107l-149 153h-189l-192 195v162l280 282v146l-149 151h-207l-152 -151v-1270h-78v950h-192v74h192v276l193 195h279l194 -195v-208l-281 -283v-98l150 -152h188l193 -197v-167l-193 -195h-421z" />
    <glyph glyph-name="agrave" unicode="&#xe0;" horiz-adv-x="1099" 
d="M836 483h-496l-147 -151v-109l147 -147h170l326 327v80zM836 0v293l-291 -293h-242l-190 193v169l190 193h533v246l-148 147h-489v76h526l190 -193v-831h-79zM526 1233l-43 -53l-272 188l45 55z" />
    <glyph glyph-name="aacute" unicode="&#xe1;" horiz-adv-x="1099" 
d="M836 483h-496l-147 -151v-109l147 -147h170l326 327v80zM836 0v293l-291 -293h-242l-190 193v169l190 193h533v246l-148 147h-489v76h526l190 -193v-831h-79zM739 1370l-272 -192l-35 55l270 190z" />
    <glyph glyph-name="acircumflex" unicode="&#xe2;" horiz-adv-x="1099" 
d="M836 483h-496l-147 -151v-109l147 -147h170l326 327v80zM836 0v293l-291 -293h-242l-190 193v169l190 193h533v246l-148 147h-489v76h526l190 -193v-831h-79zM774 1227l-45 -51l-190 161l-191 -161l-45 51l215 182h41z" />
    <glyph glyph-name="atilde" unicode="&#xe3;" horiz-adv-x="1099" 
d="M836 483h-496l-147 -151v-109l147 -147h170l326 327v80zM836 0v293l-291 -293h-242l-190 193v169l190 193h533v246l-148 147h-489v76h526l190 -193v-831h-79zM733 1298l-160 -77l-133 63l-135 -67l-29 49l164 80l133 -62l136 62z" />
    <glyph glyph-name="adieresis" unicode="&#xe4;" horiz-adv-x="1099" 
d="M836 483h-496l-147 -151v-109l147 -147h170l326 327v80zM836 0v293l-291 -293h-242l-190 193v169l190 193h533v246l-148 147h-489v76h526l190 -193v-831h-79zM430 1217h-78v135h78v-135zM694 1217h-78v135h78v-135z" />
    <glyph glyph-name="aring" unicode="&#xe5;" horiz-adv-x="1099" 
d="M836 483h-496l-147 -151v-109l147 -147h170l326 327v80zM836 0v293l-291 -293h-242l-190 193v169l190 193h533v246l-148 147h-489v76h526l190 -193v-831h-79zM606 1245v66l-63 61h-43l-66 -61v-66l66 -61h43zM664 1227l-97 -99h-92l-98 99v102l98 98h92l97 -98v-102z" />
    <glyph glyph-name="ae" unicode="&#xe6;" horiz-adv-x="1755" 
d="M854 481h-510l-151 -151v-107l151 -149h176l334 329v78zM934 553h508l151 149v99l-151 149h-355l-153 -149v-248zM934 481v-258l153 -149h465v-74h-501l-197 193v102l-299 -295h-248l-194 193v169l194 193h547v246l-152 149h-501v74h538l156 -154l156 154h428l194 -193
v-157l-194 -193h-545z" />
    <glyph glyph-name="ccedilla" unicode="&#xe7;" horiz-adv-x="954" 
d="M805 1024v-76h-408l-143 -147v-578l143 -147h424v-76h-215v-174l-180 -180h-201v69h166l141 142v143h-170l-188 193v638l188 193h443z" />
    <glyph glyph-name="egrave" unicode="&#xe8;" horiz-adv-x="1054" 
d="M254 563h494l145 150v88l-145 147h-349l-145 -147v-238zM254 489v-266l145 -147h455v-76h-489l-191 193v638l191 193h417l191 -193v-147l-191 -195h-528zM563 1233l-43 -53l-272 188l45 55z" />
    <glyph glyph-name="eacute" unicode="&#xe9;" horiz-adv-x="1054" 
d="M254 563h494l145 150v88l-145 147h-349l-145 -147v-238zM254 489v-266l145 -147h455v-76h-489l-191 193v638l191 193h417l191 -193v-147l-191 -195h-528zM838 1370l-273 -192l-35 55l271 190z" />
    <glyph glyph-name="ecircumflex" unicode="&#xea;" horiz-adv-x="1054" 
d="M254 563h494l145 150v88l-145 147h-349l-145 -147v-238zM254 489v-266l145 -147h455v-76h-489l-191 193v638l191 193h417l191 -193v-147l-191 -195h-528zM815 1227l-45 -51l-190 161l-191 -161l-45 51l215 182h41z" />
    <glyph glyph-name="edieresis" unicode="&#xeb;" horiz-adv-x="1054" 
d="M254 563h494l145 150v88l-145 147h-349l-145 -147v-238zM254 489v-266l145 -147h455v-76h-489l-191 193v638l191 193h417l191 -193v-147l-191 -195h-528zM479 1217h-78v135h78v-135zM743 1217h-77v135h77v-135z" />
    <glyph glyph-name="igrave" unicode="&#xec;" horiz-adv-x="489" 
d="M254 1233l-43 -53l-272 188l45 55zM272 0h-77v1024h77v-1024z" />
    <glyph glyph-name="iacute" unicode="&#xed;" horiz-adv-x="489" 
d="M492 1370l-273 -192l-35 55l271 190zM272 0h-77v1024h77v-1024z" />
    <glyph glyph-name="icircumflex" unicode="&#xee;" horiz-adv-x="489" 
d="M459 1227l-45 -51l-191 161l-190 -161l-45 51l215 182h41zM272 0h-77v1024h77v-1024z" />
    <glyph glyph-name="idieresis" unicode="&#xef;" horiz-adv-x="489" 
d="M125 1217h-78v135h78v-135zM389 1217h-78v135h78v-135zM272 0h-77v1024h77v-1024z" />
    <glyph glyph-name="eth" unicode="&#xf0;" horiz-adv-x="1130" 
d="M870 225v262l-327 336h-152l-149 -151v-447l149 -151h332zM270 1360v76h488l69 -72l138 141l53 -53l-139 -141l69 -70v-1046l-190 -195h-404l-190 195v507l190 195h224l292 -299v610l-45 45l-159 -163l-54 55l160 164l-49 51h-453z" />
    <glyph glyph-name="ntilde" unicode="&#xf1;" horiz-adv-x="1202" 
d="M928 0v801l-148 147h-170l-325 -327v-621h-80v1024h80v-293l290 293h242l191 -193v-831h-80zM866 1298l-159 -77l-134 63l-135 -67l-28 49l163 80l134 -62l135 62z" />
    <glyph glyph-name="ograve" unicode="&#xf2;" horiz-adv-x="1146" 
d="M893 801l-145 147h-349l-145 -147v-578l145 -147h349l145 147v578zM782 0h-417l-191 193v638l191 193h417l191 -193v-638zM578 1233l-43 -53l-273 188l45 55z" />
    <glyph glyph-name="oacute" unicode="&#xf3;" horiz-adv-x="1146" 
d="M893 801l-145 147h-349l-145 -147v-578l145 -147h349l145 147v578zM782 0h-417l-191 193v638l191 193h417l191 -193v-638zM846 1370l-273 -192l-34 55l270 190z" />
    <glyph glyph-name="ocircumflex" unicode="&#xf4;" horiz-adv-x="1146" 
d="M893 801l-145 147h-349l-145 -147v-578l145 -147h349l145 147v578zM782 0h-417l-191 193v638l191 193h417l191 -193v-638zM823 1227l-45 -51l-190 161l-191 -161l-45 51l215 182h41z" />
    <glyph glyph-name="otilde" unicode="&#xf5;" horiz-adv-x="1146" 
d="M893 801l-145 147h-349l-145 -147v-578l145 -147h349l145 147v578zM782 0h-417l-191 193v638l191 193h417l191 -193v-638zM793 1298l-160 -77l-133 63l-135 -67l-29 49l164 80l133 -62l135 62z" />
    <glyph glyph-name="odieresis" unicode="&#xf6;" horiz-adv-x="1146" 
d="M893 801l-145 147h-349l-145 -147v-578l145 -147h349l145 147v578zM782 0h-417l-191 193v638l191 193h417l191 -193v-638zM479 1217h-78v135h78v-135zM743 1217h-77v135h77v-135z" />
    <glyph glyph-name="divide" unicode="&#xf7;" horiz-adv-x="1064" 
d="M575 182h-86v166h86v-166zM952 526h-839v78h839v-78zM575 782h-86v166h86v-166z" />
    <glyph glyph-name="oslash" unicode="&#xf8;" horiz-adv-x="1173" 
d="M901 225v574l-29 26l-528 -688l59 -61h349zM821 877l-69 71h-349l-147 -149v-574l37 -37zM1020 1018l-100 -129l59 -60v-634l-193 -195h-417l-72 74l-86 -113l-57 45l92 119l-68 70v634l191 195h417l82 -84l95 123z" />
    <glyph glyph-name="ugrave" unicode="&#xf9;" horiz-adv-x="1202" 
d="M918 0v293l-291 -293h-242l-190 193v831h79v-801l148 -147h170l326 327v621h79v-1024h-79zM633 1233l-43 -53l-273 188l45 55z" />
    <glyph glyph-name="uacute" unicode="&#xfa;" horiz-adv-x="1202" 
d="M918 0v293l-291 -293h-242l-190 193v831h79v-801l148 -147h170l326 327v621h79v-1024h-79zM825 1370l-272 -192l-35 55l270 190z" />
    <glyph glyph-name="ucircumflex" unicode="&#xfb;" horiz-adv-x="1202" 
d="M918 0v293l-291 -293h-242l-190 193v831h79v-801l148 -147h170l326 327v621h79v-1024h-79zM842 1227l-45 -51l-191 161l-190 -161l-45 51l215 182h41z" />
    <glyph glyph-name="udieresis" unicode="&#xfc;" horiz-adv-x="1202" 
d="M918 0v293l-291 -293h-242l-190 193v831h79v-801l148 -147h170l326 327v621h79v-1024h-79zM508 1217h-78v135h78v-135zM772 1217h-78v135h78v-135z" />
    <glyph glyph-name="yacute" unicode="&#xfd;" horiz-adv-x="921" 
d="M78 -410v76h198l144 352l-400 994l74 24l367 -921l366 921l78 -24l-581 -1422h-246zM715 1370l-273 -192l-34 55l270 190z" />
    <glyph glyph-name="thorn" unicode="&#xfe;" horiz-adv-x="1191" 
d="M940 225v574l-149 151h-170l-328 -336v-389l149 -151h349zM293 -410h-78v1844h78v-709l293 299h241l191 -195v-634l-191 -195h-421l-113 115v-525z" />
    <glyph glyph-name="ydieresis" unicode="&#xff;" horiz-adv-x="909" 
d="M354 1217h-78v135h78v-135zM618 1217h-77v135h77v-135zM68 -410v76h198l144 352l-400 994l74 24l367 -921l366 921l78 -24l-582 -1422h-245z" />
    <glyph glyph-name="dotlessi" unicode="&#x131;" horiz-adv-x="487" 
d="M283 0h-78v1024h78v-1024z" />
    <glyph glyph-name="Lslash" unicode="&#x141;" horiz-adv-x="1216" 
d="M1114 0h-840v684l-184 -106l-39 65l223 127v664h78v-617l207 119l33 -66l-240 -139v-657h762v-74z" />
    <glyph glyph-name="lslash" unicode="&#x142;" horiz-adv-x="632" 
d="M213 1434h78v-631l217 133l33 -66l-250 -153v-490l176 -186l-53 -55l-201 209v477l-156 -94l-37 65l193 115v676z" />
    <glyph glyph-name="OE" unicode="&#x152;" horiz-adv-x="2048" 
d="M1057 74v1286h-633l-152 -154v-979l152 -153h633zM1915 0h-1524l-196 195v1044l196 195h1512v-74h-768v-574h610v-73h-610v-639h780v-74z" />
    <glyph glyph-name="oe" unicode="&#x153;" horiz-adv-x="1812" 
d="M913 225v574l-153 149h-354l-152 -149v-574l152 -149h354zM991 565h508l152 150v84l-152 149h-354l-154 -149v-234zM991 489v-264l154 -149h465v-76h-502l-156 154l-155 -154h-428l-195 193v638l195 193h428l155 -154l156 154h428l195 -193v-147l-195 -195h-545z" />
    <glyph glyph-name="Scaron" unicode="&#x160;" horiz-adv-x="1230" 
d="M184 0v76h635l148 151v316l-148 151h-440l-191 195v350l191 195h645v-76h-608l-148 -152v-284l148 -152h440l191 -195v-380l-191 -195h-672zM840 1804l41 -47l-215 -182h-41l-215 182l41 47l194 -162z" />
    <glyph glyph-name="scaron" unicode="&#x161;" horiz-adv-x="985" 
d="M154 0v76h493l146 147v105l-146 151h-301l-188 193v159l188 193h504v-76h-467l-145 -147v-96l145 -150h299l190 -193v-169l-190 -193h-528zM719 1415l41 -47l-215 -182h-41l-215 182l41 47l194 -162z" />
    <glyph glyph-name="Ydieresis" unicode="&#x178;" horiz-adv-x="1187" 
d="M494 1575h-78v135h78v-135zM758 1575h-78v135h78v-135zM631 0h-78v580l-512 829l68 41l483 -793l483 793l68 -41l-512 -829v-580z" />
    <glyph glyph-name="Zcaron" unicode="&#x17d;" horiz-adv-x="1331" 
d="M203 1356v78h897l30 -58l-827 -1298h854v-78h-930l-32 57l829 1299h-821zM842 1804l41 -47l-215 -182h-41l-215 182l41 47l194 -162z" />
    <glyph glyph-name="zcaron" unicode="&#x17e;" horiz-adv-x="1001" 
d="M154 948v76h682l30 -57l-624 -891h647v-76h-725l-31 57l625 891h-604zM696 1415l41 -47l-215 -182h-41l-215 182l41 47l195 -162z" />
    <glyph glyph-name="florin" unicode="&#x192;" horiz-adv-x="1060" 
d="M1010 1495l-13 -76h-266l-186 -155l-49 -240h393l-15 -72h-393l-239 -1167l-232 -195h-225l16 76h183l186 156l231 1130h-192l14 72h193l57 279l229 192h308z" />
    <glyph glyph-name="circumflex" unicode="&#x2c6;" horiz-adv-x="798" 
d="M635 1227l-45 -51l-191 161l-190 -161l-45 51l215 182h41z" />
    <glyph glyph-name="caron" unicode="&#x2c7;" horiz-adv-x="798" 
d="M594 1415l41 -47l-215 -182h-41l-215 182l41 47l194 -162z" />
    <glyph glyph-name="breve" unicode="&#x2d8;" horiz-adv-x="681" 
d="M164 1380h69v-86l62 -55h94l60 55v86h69v-110l-96 -92h-160l-98 92v110z" />
    <glyph glyph-name="dotaccent" unicode="&#x2d9;" horiz-adv-x="405" 
d="M242 1217h-78v135h78v-135z" />
    <glyph glyph-name="ring" unicode="&#x2da;" horiz-adv-x="614" 
d="M393 1231v65l-63 62h-43l-66 -62v-65l66 -62h43zM451 1212l-97 -98h-92l-98 98v103l98 98h92l97 -98v-103z" />
    <glyph glyph-name="ogonek" unicode="&#x2db;" horiz-adv-x="708" 
d="M545 -354h-201l-180 180v194h74v-163l141 -142h166v-69z" />
    <glyph glyph-name="tilde" unicode="&#x2dc;" horiz-adv-x="784" 
d="M621 1298l-160 -77l-133 63l-135 -67l-29 49l164 80l133 -62l135 62z" />
    <glyph glyph-name="hungarumlaut" unicode="&#x2dd;" horiz-adv-x="925" 
d="M762 1364l-287 -186l-41 55l287 190zM492 1364l-287 -186l-41 55l287 190z" />
    <glyph glyph-name="uni03A9" unicode="&#x3a9;" horiz-adv-x="1019" 
d="M274 887h-69v547h547v-70h-428l542 -543l-49 -49l-543 543v-428z" />
    <glyph glyph-name="pi" unicode="&#x3c0;" horiz-adv-x="1019" 
d="M815 0h-547v70h428l-542 540l51 52l540 -543v428h70v-547z" />
    <glyph glyph-name="endash" unicode="&#x2013;" horiz-adv-x="911" 
d="M799 541h-686v69h686v-69z" />
    <glyph glyph-name="emdash" unicode="&#x2014;" horiz-adv-x="1136" 
d="M1024 541h-911v69h911v-69z" />
    <glyph glyph-name="quoteleft" unicode="&#x2018;" horiz-adv-x="413" 
d="M252 1038h-78v164l76 244l72 -23l-70 -223v-162z" />
    <glyph glyph-name="quoteright" unicode="&#x2019;" horiz-adv-x="434" 
d="M182 1434h78v-164l-76 -244l-71 23l69 223v162z" />
    <glyph glyph-name="quotesinglbase" unicode="&#x201a;" horiz-adv-x="434" 
d="M182 164h78v-164l-76 -244l-71 23l69 223v162z" />
    <glyph glyph-name="quotedblleft" unicode="&#x201c;" horiz-adv-x="651" 
d="M252 1038h-78v164l76 244l72 -23l-70 -223v-162zM489 1038h-77v164l75 244l72 -23l-70 -223v-162z" />
    <glyph glyph-name="quotedblright" unicode="&#x201d;" horiz-adv-x="671" 
d="M420 1434h78v-164l-76 -244l-72 23l70 223v162zM182 1434h78v-164l-76 -244l-71 23l69 223v162z" />
    <glyph glyph-name="quotedblbase" unicode="&#x201e;" horiz-adv-x="671" 
d="M420 164h78v-164l-76 -244l-72 23l70 223v162zM182 164h78v-164l-76 -244l-71 23l69 223v162z" />
    <glyph glyph-name="dagger" unicode="&#x2020;" horiz-adv-x="1044" 
d="M911 950h-350v-1360h-78v1360h-350v74h350v410h78v-410h350v-74z" />
    <glyph glyph-name="daggerdbl" unicode="&#x2021;" horiz-adv-x="1044" 
d="M911 0h-350v-410h-78v410h-350v76h350v872h-350v76h350v410h78v-410h350v-76h-350v-872h350v-76z" />
    <glyph glyph-name="bullet" unicode="&#x2022;" horiz-adv-x="649" 
d="M496 991l-95 -96h-151l-96 96v142l96 96h151l95 -96v-142z" />
    <glyph glyph-name="ellipsis" unicode="&#x2026;" horiz-adv-x="1290" 
d="M1085 0h-77v164h77v-164zM684 0h-78v164h78v-164zM283 0h-78v164h78v-164z" />
    <glyph glyph-name="perthousand" unicode="&#x2030;" horiz-adv-x="2643" 
d="M737 963v280l-123 121h-243l-125 -123v-278l125 -123h243zM1550 190v281l-123 123h-243l-125 -123v-278l125 -123h243zM2396 190v281l-123 123h-243l-125 -123v-278l125 -123h243zM811 934l-164 -164h-309l-164 164v336l164 164h309l164 -164v-336zM1319 1364l-797 -1331
l-59 37l794 1331zM1624 164l-164 -164h-309l-164 164v336l164 164h309l164 -164v-336zM2470 164l-164 -164h-309l-164 164v336l164 164h309l164 -164v-336z" />
    <glyph glyph-name="guilsinglleft" unicode="&#x2039;" horiz-adv-x="661" 
d="M508 135l-53 -47l-342 426l342 426l53 -47l-305 -379z" />
    <glyph glyph-name="guilsinglright" unicode="&#x203a;" horiz-adv-x="661" 
d="M549 514l-342 -426l-53 47l305 379l-305 379l53 47z" />
    <glyph glyph-name="fraction" unicode="&#x2044;" horiz-adv-x="796" 
d="M868 1415l-876 -1435l-64 38l877 1436z" />
    <glyph glyph-name="Euro" unicode="&#x20ac;" horiz-adv-x="1304" 
d="M1151 0h-659l-193 195v362h-197v68h197v186h-197v68h197v360l193 195h655v-74h-619l-149 -152v-329h500v-68h-500v-186h500v-68h-500v-332l149 -151h623v-74z" />
    <glyph glyph-name="trademark" unicode="&#x2122;" horiz-adv-x="1095" 
d="M463 1376h-176v-475h-62v475h-174v58h412v-58zM625 901h-62v533h51l170 -316l168 316h52v-533h-62v393l-139 -260h-37l-141 262v-395z" />
    <glyph glyph-name="partialdiff" unicode="&#x2202;" horiz-adv-x="1089" 
d="M580 539h-70v780l-305 -311l-51 53l391 393l391 -393l-51 -53l-305 311v-780z" />
    <glyph glyph-name="Delta" unicode="&#x2206;" horiz-adv-x="1089" 
d="M510 895h70v-780l305 311l51 -53l-391 -393l-391 393l51 53l305 -311v780z" />
    <glyph glyph-name="product" unicode="&#x220f;" horiz-adv-x="1019" 
d="M752 70v-70h-547v547h69v-428l541 543l51 -52l-542 -540h428z" />
    <glyph glyph-name="summation" unicode="&#x2211;" horiz-adv-x="1019" 
d="M752 70v-70h-547v547h69v-428l541 543l51 -52l-542 -540h428z" />
    <glyph glyph-name="minus" unicode="&#x2212;" horiz-adv-x="808" 
d="M696 541h-583v69h583v-69z" />
    <glyph glyph-name="radical" unicode="&#x221a;" horiz-adv-x="1161" 
d="M1028 446h-780l311 -305l-53 -51l-393 391l393 391l53 -51l-311 -305h780v-70z" />
    <glyph glyph-name="infinity" unicode="&#x221e;" horiz-adv-x="1161" 
d="M1028 446h-780l311 -305l-53 -51l-393 391l393 391l53 -51l-311 -305h780v-70z" />
    <glyph glyph-name="integral" unicode="&#x222b;" horiz-adv-x="1019" 
d="M815 0h-547v70h428l-542 540l51 52l540 -543v428h70v-547z" />
    <glyph glyph-name="approxequal" unicode="&#x2248;" horiz-adv-x="1019" 
d="M815 887h-70v428l-542 -543l-49 49l542 543h-428v70h547v-547z" />
    <glyph glyph-name="notequal" unicode="&#x2260;" horiz-adv-x="1161" 
d="M133 446v70h780l-311 305l53 51l394 -391l-394 -391l-53 51l311 305h-780z" />
    <glyph glyph-name="lessequal" unicode="&#x2264;" horiz-adv-x="1161" 
d="M1028 446h-780l311 -305l-53 -51l-393 391l393 391l53 -51l-311 -305h780v-70z" />
    <glyph glyph-name="greaterequal" unicode="&#x2265;" horiz-adv-x="1161" 
d="M133 446v70h780l-311 305l53 51l394 -391l-394 -391l-53 51l311 305h-780z" />
    <glyph glyph-name="lozenge" unicode="&#x25ca;" horiz-adv-x="1161" 
d="M133 446v70h780l-311 305l53 51l394 -391l-394 -391l-53 51l311 305h-780z" />
    <glyph glyph-name="A_I" unicode="&#xe000;" horiz-adv-x="1933" 
d="M1001 489l-307 820l-307 -820h614zM1708 0h-520l-158 414h-672l-161 -426l-74 24l539 1422h63l516 -1360h389v1360h78v-1434z" />
    <glyph glyph-name="A_L" unicode="&#xe001;" horiz-adv-x="2646" 
d="M1008 489l-310 820l-309 -820h619zM2544 0h-858v416h-570l158 -404l-74 -24l-164 428h-676l-163 -428l-74 24l545 1422h63l356 -945h599v945h77v-1360h781v-74z" />
    <glyph glyph-name="A_N" unicode="&#xe002;" horiz-adv-x="2799" 
d="M1008 489l-310 820l-309 -820h619zM1688 0h-80v414h-488l156 -402l-76 -24l-162 426h-678l-163 -426l-74 24l545 1422h63l361 -945h516v926l67 33l830 -1298v1284h80v-1416l-68 -32l-829 1298v-1284z" />
    <glyph glyph-name="A_R" unicode="&#xe003;" horiz-adv-x="2772" 
d="M1008 489l-310 820l-309 -820h619zM1690 1360v-623h626l154 152v319l-154 152h-626zM1690 664v-469l-199 -195h-297l-156 414h-678l-163 -428l-74 24l545 1424h63l518 -1360h205l158 151v1209h737l199 -195v-381l-199 -194h-154l445 -639l-66 -45l-475 684h-409z" />
    <glyph glyph-name="A_S" unicode="&#xe004;" horiz-adv-x="2600" 
d="M1008 489l-310 820l-309 -820h619zM2394 1434v-74h-625l-153 -152v-288l153 -152h451l197 -195v-378l-197 -195h-1024l-160 414h-676l-163 -426l-74 24l543 1422h65l518 -1360h936l154 151v318l-154 151h-450l-197 195v350l197 195h659z" />
    <glyph glyph-name="A_T" unicode="&#xe005;" horiz-adv-x="2369" 
d="M1006 489l-308 820l-309 -820h617zM2339 1360h-492v-1360h-82v1360h-1007l514 -1348l-74 -24l-162 426h-676l-163 -426l-74 24l543 1422h1673v-74z" />
    <glyph glyph-name="C_E" unicode="&#xe006;" horiz-adv-x="2426" 
d="M2294 0h-860v1360h-1008l-154 -152v-983l154 -151h635v-74h-670l-196 195v1044l196 195h1890v-74h-770v-574h613v-73h-613v-639h783v-74z" />
    <glyph glyph-name="C_O" unicode="&#xe007;" horiz-adv-x="2547" 
d="M2275 225v983l-153 152h-518l-154 -152v-983l154 -151h518zM1057 1434v-74h-631l-154 -152v-983l154 -151h1067l-121 119v1046l197 195h588l196 -195v-1044l-196 -195h-1766l-196 195v1044l196 195h666z" />
    <glyph glyph-name="D_E" unicode="&#xe008;" horiz-adv-x="2570" 
d="M293 1360v-1286h610l152 151v983l-152 152h-610zM2437 0h-862v713h-438v-518l-197 -195h-725v1434h725l197 -195v-453h438v648h850v-74h-772v-574h614v-73h-614v-639h784v-74z" />
    <glyph glyph-name="E_A" unicode="&#xe009;" horiz-adv-x="2527" 
d="M2138 489l-309 820l-307 -820h616zM215 0v1434h850v-74h-772v-574h614v-73h-614v-639h987l518 1360h64l542 -1422l-73 -24l-164 428h-676l-158 -416h-1118z" />
    <glyph glyph-name="E_D" unicode="&#xe00a;" horiz-adv-x="2529" 
d="M1495 1360v-1286h608l154 151v983l-154 152h-608zM1417 0v713h-1124v-639h784v-74h-862v1434h850v-74h-772v-574h1124v648h721l197 -195v-1044l-197 -195h-721z" />
    <glyph glyph-name="E_N" unicode="&#xe00b;" horiz-adv-x="2605" 
d="M1497 0h-78v713h-1126v-639h784v-74h-862v1434h850v-74h-772v-574h1126v629l66 33l827 -1298v1284h78v-1416l-66 -32l-827 1298v-1284z" />
    <glyph glyph-name="E_R" unicode="&#xe00c;" horiz-adv-x="2603" 
d="M1501 1360v-594h627l153 152v290l-153 152h-627zM1501 692v-692h-80v692h-1128v-618h784v-74h-862v1434h850v-74h-772v-594h1128v668h742l196 -195v-352l-196 -195h-158l465 -667l-66 -45l-493 712h-410z" />
    <glyph glyph-name="E_S" unicode="&#xe00d;" horiz-adv-x="2443" 
d="M215 0v1434h850v-74h-772v-574h612v-73h-612v-639h1735l153 151v318l-153 151h-449l-197 195v350l197 195h657v-74h-622l-154 -152v-288l154 -152h448l197 -195v-378l-197 -195h-1847z" />
    <glyph glyph-name="H_A" unicode="&#xe00e;" horiz-adv-x="2801" 
d="M2413 489l-310 811l-309 -811h619zM1106 709h-811v-709h-80v1434h80v-648h811v648h80v-1207l153 -151h211l521 1358h63l545 -1422l-74 -24l-164 426h-678l-155 -414h-305l-197 195v514z" />
    <glyph glyph-name="H_E" unicode="&#xe00f;" horiz-adv-x="2658" 
d="M2525 0h-864v709h-475v-709h-82v709h-809v-709h-80v1434h80v-648h809v648h82v-648h475v648h852v-76h-772v-572h612v-77h-612v-633h784v-76z" />
    <glyph glyph-name="M_E" unicode="&#xe010;" horiz-adv-x="2834" 
d="M2701 0h-866v711h-475v-711h-82v1249l-465 -866h-51l-467 866v-1249h-80v1434h72l499 -936l500 936h74v-648h475v648h854v-76h-774v-572h614v-75h-614v-635h786v-76z" />
    <glyph glyph-name="N_D" unicode="&#xe011;" horiz-adv-x="2777" 
d="M1739 1358v-1282h610l154 151v979l-154 152h-610zM1659 0v711h-467v-693l-68 -32l-829 1298v-1284h-80v1415l68 33l827 -1298v1284h82v-648h467v648h727l197 -195v-1044l-197 -195h-727z" />
    <glyph glyph-name="N_E" unicode="&#xe012;" horiz-adv-x="2646" 
d="M2513 0h-864v711h-459v-693l-68 -32l-827 1298v-1284h-80v1415l68 33l827 -1298v1284h80v-648h459v648h852v-76h-772v-572h612v-75h-612v-635h784v-76z" />
    <glyph glyph-name="N_G" unicode="&#xe013;" horiz-adv-x="2779" 
d="M295 0h-80v1415l68 33l827 -1298v1284h82v-1358h324l153 151v1012l197 195h698v-76h-661l-154 -152v-979l154 -151h469l153 151v373h-409v76h489v-481l-197 -195h-542l-156 156l-158 -156h-436l-821 1284v-1284z" />
    <glyph glyph-name="N_T" unicode="&#xe014;" horiz-adv-x="2521" 
d="M2490 1358h-493v-1358h-80v1358h-727v-1340l-68 -32l-827 1298v-1284h-80v1415l68 33l827 -1298v1284h1380v-76z" />
    <glyph glyph-name="O_F" unicode="&#xe015;" horiz-adv-x="2557" 
d="M1100 227v979l-154 152h-518l-154 -152v-979l154 -151h518zM2497 1358h-779v-572h621v-75h-621v-711h-80v711h-458v-516l-197 -195h-592l-196 195v1044l196 195h592l197 -195v-453h458v648h859v-76z" />
    <glyph glyph-name="O_M" unicode="&#xe016;" horiz-adv-x="2981" 
d="M1102 227v979l-154 152h-520l-154 -152v-979l154 -151h520zM2767 0h-80v1249l-467 -866h-51l-467 866v-1249h-80v711h-440v-516l-197 -195h-594l-196 195v1044l196 195h594l197 -195v-453h440v648h72l501 -936l500 936h72v-1434z" />
    <glyph glyph-name="O_N" unicode="&#xe017;" horiz-adv-x="2822" 
d="M1100 227v979l-152 152h-520l-154 -152v-979l154 -151h520zM1712 0h-82v711h-448v-516l-197 -195h-594l-196 195v1044l196 195h594l197 -195v-453h448v629l68 33l829 -1298v1284h80v-1416l-67 -32l-828 1298v-1284z" />
    <glyph glyph-name="O_R" unicode="&#xe018;" horiz-adv-x="2807" 
d="M1102 227v979l-154 152h-520l-154 -152v-979l154 -151h520zM1724 1358v-619h627l154 152v315l-154 152h-627zM1724 664v-664h-82v664h-460v-469l-197 -195h-594l-196 195v1044l196 195h594l197 -195v-500h460v695h746l199 -195v-381l-199 -194h-158l445 -639l-66 -45
l-475 684h-410z" />
    <glyph glyph-name="O_U" unicode="&#xe019;" horiz-adv-x="2793" 
d="M1100 227v979l-154 152h-518l-154 -152v-979l154 -151h518zM1622 711h-440v-516l-199 -195h-592l-196 195v1044l196 195h592l199 -195v-453h440v648h80v-1207l153 -151h500l154 151v1207h80v-1239l-197 -195h-573l-197 195v516z" />
    <glyph glyph-name="R_A" unicode="&#xe01a;" horiz-adv-x="2695" 
d="M295 1358v-619h629l153 152v315l-153 152h-629zM2306 489l-309 811l-309 -811h618zM295 664v-664h-80v1434h746l196 -195v-381l-196 -194h-160l409 -588h236l518 1358h66l542 -1422l-73 -24l-164 426h-676l-158 -414h-334l-460 664h-412z" />
    <glyph glyph-name="R_E" unicode="&#xe01b;" horiz-adv-x="2596" 
d="M295 1358v-619h629l151 152v315l-151 152h-629zM2464 0h-1299l-460 664h-410v-664h-80v1434h743l199 -195v-381l-199 -194h-157l407 -588h391v1358h852v-76h-772v-572h615v-75h-615v-635h785v-76z" />
    <glyph glyph-name="R_I" unicode="&#xe01c;" horiz-adv-x="1923" 
d="M295 1358v-619h620l152 152v315l-152 152h-620zM1698 0h-541l-457 664h-405v-664h-80v1434h737l195 -195v-381l-195 -194h-157l405 -588h418v1358h80v-1434z" />
    <glyph glyph-name="R_O" unicode="&#xe01d;" horiz-adv-x="2783" 
d="M295 1358v-619h629l153 152v315l-153 152h-629zM2509 227v979l-154 152h-518l-154 -152v-979l154 -151h518zM295 664v-664h-80v1434h746l196 -195v-381l-196 -194h-160l409 -588h240l152 151v1012l198 195h592l197 -195v-1044l-197 -195h-592l-158 156l-155 -156h-320
l-460 664h-412z" />
    <glyph glyph-name="S_E" unicode="&#xe01e;" horiz-adv-x="2490" 
d="M2357 0h-864v1358h-1071l-154 -152v-286l154 -152h452l197 -195v-378l-197 -195h-690v76h654l151 151v314l-151 151h-453l-197 195v352l197 195h1960v-76h-772v-572h614v-75h-614v-635h784v-76z" />
    <glyph glyph-name="S_I" unicode="&#xe01f;" horiz-adv-x="1796" 
d="M1571 0h-80v1358h-1071l-152 -152v-286l152 -152h446l195 -195v-378l-195 -195h-682v76h645l152 151v314l-152 151h-446l-195 195v352l195 195h1188v-1434z" />
    <glyph glyph-name="S_T" unicode="&#xe020;" horiz-adv-x="2279" 
d="M2249 1358h-492v-1358h-80v1358h-1255l-154 -152v-286l154 -152h450l197 -195v-378l-197 -195h-688v76h654l151 151v314l-151 151h-453l-197 195v352l197 195h1864v-76z" />
    <glyph glyph-name="T_A" unicode="&#xe021;" horiz-adv-x="2342" 
d="M1954 489l-309 811l-308 -811h617zM604 1358v-1358h-82v1358h-491v76h1646l543 -1422l-74 -24l-164 426h-675l-162 -426l-74 24l512 1346h-979z" />
    <glyph glyph-name="T_E" unicode="&#xe022;" horiz-adv-x="2351" 
d="M2218 0h-864v1358h-750v-1358h-82v1358h-491v76h2175v-76h-772v-572h614v-75h-614v-635h784v-76z" />
    <glyph glyph-name="T_H" unicode="&#xe023;" horiz-adv-x="2494" 
d="M2279 0h-79v709h-809v-709h-80v1358h-707v-1358h-80v1358h-493v76h1360v-648h809v648h79v-1434z" />
    <glyph glyph-name="T_O" unicode="&#xe024;" horiz-adv-x="2471" 
d="M2198 227v979l-154 152h-518l-154 -152v-979l154 -151h518zM604 1358v-1358h-80v1358h-493v76h2050l196 -195v-1044l-196 -195h-592l-197 195v1044l121 119h-809z" />
    <glyph glyph-name="U_S" unicode="&#xe025;" horiz-adv-x="2627" 
d="M205 1434h80v-1207l153 -151h498l154 151v1207h79v-1239l-118 -119h1159l153 151v314l-153 151h-453l-196 195v352l196 195h662v-76h-625l-154 -152v-286l154 -152h453l196 -195v-378l-196 -195h-1846l-196 195v1239z" />
    <glyph glyph-name="U_T" unicode="&#xe026;" horiz-adv-x="2496" 
d="M2466 1358h-494v-1358h-80v1358h-723v-1163l-196 -195h-572l-196 195v1239h80v-1207l153 -151h498l154 151v1207h1376v-76z" />
    <glyph glyph-name="V_E" unicode="&#xe027;" horiz-adv-x="2455" 
d="M2322 0h-864v711h-549l-264 -711h-61l-533 1421l74 25l489 -1307l490 1307l74 -25l-238 -635h518v648h852v-76h-772v-572h614v-75h-614v-635h784v-76z" />
    <glyph glyph-name="A_i" unicode="&#xe028;" horiz-adv-x="1890" 
d="M999 489l-305 820l-307 -820h612zM1608 1024h78v-829l-193 -195h-307l-158 414h-670l-161 -426l-74 24l539 1422h63l514 -1360h217l152 151v799zM1686 1208h-78v226h78v-226z" />
    <glyph glyph-name="A_l" unicode="&#xe029;" horiz-adv-x="2035" 
d="M1001 489l-307 820l-307 -820h614zM1628 1434h78v-1207l186 -186l-53 -55l-170 170l-158 -156h-323l-156 414h-674l-161 -426l-74 24l541 1422h63l514 -1360h236l151 151v1209z" />
    <glyph glyph-name="A_n" unicode="&#xe02a;" horiz-adv-x="2619" 
d="M1008 489l-310 820l-309 -820h619zM2425 0h-78v799l-154 151h-176l-338 -336v-421l-243 -193h-240l-160 414h-676l-163 -426l-74 24l543 1422h65l518 -1358h158l195 153v795h77v-299l301 299h248l197 -197v-827z" />
    <glyph glyph-name="A_r" unicode="&#xe02b;" horiz-adv-x="2222" 
d="M1006 489l-310 820l-307 -820h617zM2202 950h-213l-338 -336v-419l-195 -195h-264l-158 414h-674l-163 -426l-74 24l543 1422h63l516 -1360h176l152 151v799h78v-299l301 299h250v-74z" />
    <glyph glyph-name="A_s" unicode="&#xe02c;" horiz-adv-x="2344" 
d="M1006 489l-310 820l-307 -820h617zM2210 1024v-74h-484l-153 -151v-94l153 -152h310l196 -195v-163l-196 -195h-842l-160 414h-674l-163 -426l-74 24l543 1422h63l518 -1360h754l153 151v103l-153 151h-309l-197 195v153l197 197h518z" />
    <glyph glyph-name="A_t" unicode="&#xe02d;" horiz-adv-x="2316" 
d="M1006 489l-310 820l-307 -820h617zM2224 0h-313l-160 158l-160 -158h-397l-160 414h-674l-163 -426l-74 24l543 1422h63l518 -1360h307l154 151v725h-276v74h276v283h80v-283h430v-74h-430v-719l160 -157h276v-74z" />
    <glyph glyph-name="C_e" unicode="&#xe02e;" horiz-adv-x="2148" 
d="M1327 571h508l154 152v76l-154 151h-356l-152 -151v-228zM1327 498v-271l152 -153h467v-74h-1555l-196 195v1044l196 195h664v-74h-629l-154 -152v-983l154 -151h942l-119 121v632l197 197h424l196 -197v-135l-196 -194h-543z" />
    <glyph glyph-name="C_o" unicode="&#xe02f;" horiz-adv-x="2240" 
d="M1989 225v574l-154 151h-354l-154 -151v-574l154 -151h354zM1055 1434v-74h-629l-154 -152v-983l154 -151h942l-119 121v632l197 197h424l196 -197v-632l-196 -195h-1479l-196 195v1044l196 195h664z" />
    <glyph glyph-name="D_e" unicode="&#xe030;" horiz-adv-x="2435" 
d="M293 1360v-1286h608l154 151v983l-154 152h-608zM1612 571h510l153 152v76l-153 151h-357l-153 -151v-228zM1612 498v-273l153 -151h467v-74h-501l-197 195v303h-401v-303l-197 -195h-721v1434h721l197 -195v-668h401v256l197 197h426l196 -197v-135l-196 -194h-545z" />
    <glyph glyph-name="E_a" unicode="&#xe031;" horiz-adv-x="2326" 
d="M2062 485h-514l-151 -151v-107l151 -151h176l338 334v75zM2142 0h-80v299l-301 -299h-250l-155 156l-156 -156h-985v1434h850v-76h-770v-572h612v-75h-612v-635h868l154 151v140l194 194h551v236l-153 151h-504v76h541l196 -197v-827z" />
    <glyph glyph-name="E_d" unicode="&#xe032;" horiz-adv-x="2398" 
d="M2114 410v387l-154 151h-361l-151 -151v-570l151 -151h177zM2193 0h-79v299l-302 -299h-249l-156 156l-156 -156h-1036v1434h850v-76h-770v-572h612v-75h-612v-635h919l154 151v600l195 197h434l117 -117v527h79v-1434z" />
    <glyph glyph-name="E_n" unicode="&#xe033;" horiz-adv-x="2400" 
d="M2206 0h-80v797l-154 151h-176l-336 -336v-612h-1245v1434h850v-76h-770v-572h612v-75h-612v-635h1085v948h80v-299l299 299h250l197 -197v-827z" />
    <glyph glyph-name="E_r" unicode="&#xe034;" horiz-adv-x="2031" 
d="M2011 948h-211l-338 -336v-612h-1247v1434h848v-76h-768v-572h610v-75h-610v-635h1087v948h80v-299l301 299h248v-76z" />
    <glyph glyph-name="E_s" unicode="&#xe035;" horiz-adv-x="2129" 
d="M215 0v1434h848v-76h-768v-572h610v-75h-610v-635h1491l151 151v97l-151 151h-311l-197 195v157l197 197h518v-76h-482l-153 -151v-95l153 -151h310l196 -195v-161l-196 -195h-1606z" />
    <glyph glyph-name="H_a" unicode="&#xe036;" horiz-adv-x="2611" 
d="M2347 485h-514l-154 -151v-107l154 -151h176l338 334v75zM2427 0h-80v299l-301 -299h-250l-158 156l-155 -156h-379v709h-809v-709h-80v1434h80v-648h809v648h80v-1358h262l153 151v140l197 194h551v236l-154 151h-505v76h542l197 -197v-827z" />
    <glyph glyph-name="H_e" unicode="&#xe037;" horiz-adv-x="2535" 
d="M1710 565h510l154 152v80l-154 151h-356l-154 -151v-232zM1710 489v-262l154 -151h467v-76h-504l-158 156l-156 -156h-213l-196 195v516h-809v-711h-80v1434h80v-648h809v648h80v-1207l153 -151h140l151 151v600l199 197h430l197 -197v-143l-197 -195h-547z" />
    <glyph glyph-name="H_i" unicode="&#xe038;" horiz-adv-x="1931" 
d="M1726 0h-79v711h-471v-711h-80v711h-801v-711h-80v1434h80v-648h801v648h80v-648h471v238h79v-1024zM1726 1208h-79v226h79v-226z" />
    <glyph glyph-name="I_c" unicode="&#xe039;" horiz-adv-x="1550" 
d="M1417 0h-471l-194 195v307h-447v-502h-80v1434h80v-856h447v249l194 197h455v-76h-420l-150 -151v-570l150 -151h436v-76z" />
    <glyph glyph-name="I_n" unicode="&#xe03a;" horiz-adv-x="1798" 
d="M1604 0h-80v797l-152 151h-174l-334 -336v-612h-80v948h-479v-948h-80v1434h80v-410h559v-299l297 299h248l195 -197v-827z" />
    <glyph glyph-name="I_s" unicode="&#xe03b;" horiz-adv-x="1570" 
d="M725 0v76h504l149 151v97l-149 151h-924v-475h-80v1434h80v-883h541l-117 119v157l193 197h512v-76h-476l-151 -151v-95l151 -151h306l194 -195v-161l-194 -195h-539z" />
    <glyph glyph-name="I_t" unicode="&#xe03c;" horiz-adv-x="1423" 
d="M1331 0h-307l-201 201v747h-518v-948h-80v1434h80v-410h518v283h80v-283h422v-76h-422v-715l156 -157h272v-76z" />
    <glyph glyph-name="L_e" unicode="&#xe03d;" horiz-adv-x="2074" 
d="M1251 571h508l154 152v74l-154 151h-354l-154 -151v-226zM1251 496v-269l154 -151h465v-76h-502l-156 156l-155 -156h-842v1434h80v-1358h725l151 151v600l197 197h428l197 -197v-137l-197 -194h-545z" />
    <glyph glyph-name="M_e" unicode="&#xe03e;" horiz-adv-x="2674" 
d="M1847 571h512l154 152v74l-154 151h-358l-154 -151v-226zM1847 496v-269l154 -151h469v-76h-506l-197 195v301h-409v-496h-80v1249l-465 -866h-53l-465 866v-1249h-80v1434h72l499 -936l500 936h72v-863h409v256l197 197h432l197 -197v-137l-197 -194h-549z" />
    <glyph glyph-name="N_d" unicode="&#xe03f;" horiz-adv-x="2619" 
d="M2335 410v387l-154 151h-360l-154 -151v-570l154 -151h176zM2415 0h-80v299l-301 -299h-250l-158 156l-156 -156h-356l-819 1284v-1284h-80v1415l68 33l827 -1298v1284h80v-1358h244l153 151v600l197 197h434l117 -117v527h80v-1434z" />
    <glyph glyph-name="N_e" unicode="&#xe040;" horiz-adv-x="2521" 
d="M1696 571h510l153 152v74l-153 151h-357l-153 -151v-226zM1696 496v-269l153 -151h467v-76h-504l-196 195v301h-426v-478l-68 -32l-827 1298v-1284h-80v1415l68 33l827 -1298v1284h80v-863h426v256l196 197h431l196 -197v-137l-196 -194h-547z" />
    <glyph glyph-name="N_g" unicode="&#xe041;" horiz-adv-x="2600" 
d="M2316 260v352l-338 336h-176l-153 -151v-537l153 -154h361zM1681 -410v76h482l153 154v327l-116 -116h-435l-196 196v281h-379v-498l-68 -33l-827 1305v-1290h-80v1421l68 35l827 -1305v1291h80v-850h379v245l196 195h250l301 -299v299h80v-1237l-196 -197h-519z" />
    <glyph glyph-name="N_t" unicode="&#xe042;" horiz-adv-x="2287" 
d="M2195 0h-313l-203 201v747h-491v-930l-68 -32l-825 1298v-1284h-80v1415l68 33l825 -1298v1284h80v-410h491v283h80v-283h430v-76h-430v-715l160 -157h276v-76z" />
    <glyph glyph-name="O_f" unicode="&#xe043;" horiz-adv-x="2177" 
d="M1098 227v981l-154 152h-516l-154 -152v-981l154 -151h516zM2146 1419h-270l-154 -151v-244h400v-76h-400v-948h-80v948h-464v-753l-197 -195h-590l-196 195v1046l196 195h590l197 -195v-217h464v276l197 195h307v-76z" />
    <glyph glyph-name="O_m" unicode="&#xe044;" horiz-adv-x="3352" 
d="M1104 227v979l-154 152h-520l-156 -152v-979l156 -151h520zM3158 0h-80v797l-156 151h-155l-340 -336v-612h-80v797l-156 151h-155l-340 -336v-612h-80v600h-432v-405l-197 -195h-594l-198 195v1044l198 195h594l197 -195v-563h432v348h80v-303l303 303h229l199 -197
v-102l303 299h229l199 -197v-827z" />
    <glyph glyph-name="O_n" unicode="&#xe045;" horiz-adv-x="2648" 
d="M1100 227v979l-154 152h-518l-154 -152v-979l154 -151h518zM2454 0h-80v797l-154 151h-176l-338 -334v-614h-82v608h-444v-413l-197 -195h-592l-196 195v1044l196 195h592l197 -195v-555h444v340h82v-303l301 303h250l197 -197v-827z" />
    <glyph glyph-name="O_r" unicode="&#xe046;" horiz-adv-x="2248" 
d="M1098 227v979l-154 152h-516l-154 -152v-979l154 -151h516zM2228 948h-213l-338 -334v-614h-80v606h-419v-411l-197 -195h-590l-196 195v1044l196 195h590l197 -195v-557h419v342h80v-303l301 303h250v-76z" />
    <glyph glyph-name="O_u" unicode="&#xe047;" horiz-adv-x="2633" 
d="M1100 227v979l-154 152h-518l-154 -152v-979l154 -151h518zM2429 0h-80v299l-301 -299h-250l-196 195v387h-422v-387l-197 -195h-592l-196 195v1044l196 195h592l197 -195v-582h422v367h79v-797l154 -151h176l338 334v614h80v-1024z" />
    <glyph glyph-name="R_a" unicode="&#xe048;" horiz-adv-x="2484" 
d="M295 1358v-619h627l153 152v315l-153 152h-627zM2220 485h-514l-154 -151v-107l154 -151h176l338 334v75zM2300 0h-80v299l-301 -299h-250l-196 195v172l196 194h551v236l-154 151h-911v-90l-197 -194h-159l444 -639l-65 -45l-473 684h-410v-664h-80v1434h743l197 -195
v-215h948l197 -197v-827z" />
    <glyph glyph-name="R_e" unicode="&#xe049;" horiz-adv-x="2428" 
d="M295 1358v-619h627l153 152v315l-153 152h-627zM1604 571h510l153 152v74l-153 151h-357l-153 -151v-226zM1604 496v-269l153 -151h467v-76h-504l-157 156l-156 -156h-242l-460 664h-410v-664h-80v1434h743l197 -195v-381l-197 -194h-159l409 -588h162l154 151v600
l196 197h430l197 -197v-137l-197 -194h-546z" />
    <glyph glyph-name="R_i" unicode="&#xe04a;" horiz-adv-x="1882" 
d="M295 1358v-619h620l152 152v315l-152 152h-620zM295 664v-664h-80v1434h737l195 -195v-381l-195 -194h-157l405 -588h246l151 151v797h80v-829l-194 -195h-326l-457 664h-405zM1677 1208h-80v226h80v-226z" />
    <glyph glyph-name="R_o" unicode="&#xe04b;" horiz-adv-x="2541" 
d="M295 1358v-619h627l153 152v315l-153 152h-627zM2288 227v570l-154 151h-356l-154 -151v-570l154 -151h356zM295 664v-664h-80v1434h743l197 -195v-381l-197 -194h-157l407 -588h183l153 151v600l197 197h430l196 -197v-632l-196 -195h-430l-158 156l-156 -156h-262
l-460 664h-410z" />
    <glyph glyph-name="S_e" unicode="&#xe04c;" horiz-adv-x="2353" 
d="M1528 586h510l153 151v60l-153 151h-357l-153 -151v-211zM1528 510v-283l153 -151h467v-76h-503l-197 195v315h-379v-315l-197 -195h-688v76h652l153 151v314l-153 151h-451l-197 195v352l197 195h662v-76h-625l-154 -152v-286l154 -152h450l187 -182h389v241l197 197
h430l196 -197v-122l-196 -195h-547z" />
    <glyph glyph-name="S_i" unicode="&#xe04d;" horiz-adv-x="1705" 
d="M1501 1208h-80v150h-1001l-152 -152v-286l152 -152h446l193 -195v-378l-193 -195h-682v76h645l152 151v314l-152 151h-446l-195 195v352l195 195h1118v-226zM1501 0h-80v1024h80v-1024z" />
    <glyph glyph-name="S_t" unicode="&#xe04e;" horiz-adv-x="2140" 
d="M2048 0h-313l-201 201v747h-277v76h277v182l-154 152h-960l-152 -152v-286l152 -152h450l197 -195v-378l-197 -195h-686v76h650l153 151v314l-153 151h-449l-197 195v352l197 195h1032l197 -195v-215h428v-76h-428v-715l158 -157h276v-76z" />
    <glyph glyph-name="T_e" unicode="&#xe04f;" horiz-adv-x="2031" 
d="M1208 571h508l154 152v74l-154 151h-356l-152 -151v-226zM1208 496v-269l152 -151h467v-76h-502l-197 195v301h-526v-496h-80v1358h-491v76h1063v-76h-492v-787h526v256l197 197h428l197 -197v-137l-197 -194h-545z" />
    <glyph glyph-name="T_h" unicode="&#xe050;" horiz-adv-x="2312" 
d="M2118 0h-80v797l-154 151h-176l-338 -336v-612h-80v1358h-688v-1358h-80v1358h-491v76h1339v-709l301 299h250l197 -197v-827z" />
    <glyph glyph-name="T_i" unicode="&#xe051;" horiz-adv-x="1515" 
d="M1311 1208h-80v150h-635v-1358h-80v1358h-485v76h1280v-226zM1311 0h-80v1024h80v-1024z" />
    <glyph glyph-name="T_o" unicode="&#xe052;" horiz-adv-x="2166" 
d="M1913 227v570l-154 151h-356l-152 -151v-570l152 -151h356zM522 0v1358h-491v76h1063v-76h-492v-1282h416l151 151v600l197 197h430l197 -197v-632l-197 -195h-430l-156 156l-155 -156h-533z" />
    <glyph glyph-name="U_s" unicode="&#xe053;" horiz-adv-x="2375" 
d="M205 1434h80v-1207l153 -151h498l151 151v1207h80v-1239l-118 -119h981l153 151v97l-153 151h-312l-196 195v157l196 197h520v-76h-483l-151 -151v-95l151 -151h311l197 -195v-161l-197 -195h-1665l-196 195v1239z" />
    <glyph glyph-name="U_t" unicode="&#xe054;" horiz-adv-x="2287" 
d="M2195 0h-313l-203 201v747h-512v-753l-196 -195h-570l-196 195v1239h80v-1207l153 -151h496l153 151v1207h80v-410h512v283h82v-283h428v-76h-428v-715l158 -157h276v-76z" />
    <glyph glyph-name="V_e" unicode="&#xe055;" horiz-adv-x="2217" 
d="M1393 571h510l153 152v74l-153 151h-357l-153 -151v-226zM1393 496v-269l153 -151h467v-76h-504l-196 195v301h-486l-184 -496h-59l-533 1421l74 25l489 -1307l488 1307l74 -25l-318 -850h455v256l196 197h430l197 -197v-137l-197 -194h-546z" />
    <glyph glyph-name="a_c" unicode="&#xe056;" horiz-adv-x="2134" 
d="M858 481h-512l-153 -151v-105l153 -149h174l338 330v75zM2001 0h-477l-197 193v288h-389v-481h-80v295l-301 -295h-248l-196 193v169l196 193h549v244l-153 149h-504v76h540l197 -193v-276h389v276l197 193h461v-76h-424l-154 -149v-574l154 -149h440v-76z" />
    <glyph glyph-name="a_d" unicode="&#xe057;" horiz-adv-x="2365" 
d="M860 485h-514l-153 -151v-107l153 -151h176l338 334v75zM2081 410v387l-154 151h-360l-154 -151v-570l154 -151h176zM2161 0h-80v299l-301 -299h-250l-197 195v290h-393v-485h-80v299l-301 -299h-250l-196 195v172l196 194h551v236l-153 151h-506v76h542l197 -197v-266
h393v266l197 197h434l117 -117v527h80v-1434z" />
    <glyph glyph-name="a_i" unicode="&#xe058;" horiz-adv-x="1673" 
d="M852 485h-508l-151 -151v-107l151 -151h174l334 334v75zM1468 0h-421l-195 195v104l-299 -299h-246l-194 195v172l194 194h545v236l-152 151h-499v76h536l195 -197v-600l149 -151h308v948h79v-1024zM1468 1208h-79v226h79v-226z" />
    <glyph glyph-name="a_l" unicode="&#xe059;" horiz-adv-x="1773" 
d="M854 487h-510l-151 -151v-109l151 -151h174l336 336v75zM934 0h-80v299l-299 -299h-248l-194 195v174l194 194h547v234l-152 151h-501v76h469v420l196 194h383l195 -194v-1217l186 -186l-55 -55l-211 209v1216l-152 152h-311l-151 -152v-397l184 -185v-829z" />
    <glyph glyph-name="a_n" unicode="&#xe05a;" horiz-adv-x="2404" 
d="M860 481h-514l-153 -151v-105l153 -149h176l338 330v75zM2210 0h-80v799l-154 149h-176l-338 -330v-618h-405l-197 193v102l-301 -295h-250l-196 193v169l196 193h551v244l-153 149h-506v76h542l197 -193v-606l154 -149h288v948h80v-295l301 295h250l197 -193v-831z" />
    <glyph glyph-name="a_r" unicode="&#xe05b;" horiz-adv-x="2045" 
d="M858 481h-512l-153 -151v-105l153 -149h176l336 330v75zM2025 948h-231l-338 -330v-618h-401l-197 193v102l-301 -295h-248l-196 193v169l196 193h549v244l-151 149h-506v76h540l197 -193v-606l154 -149h284v948h80v-295l301 295h268v-76z" />
    <glyph glyph-name="a_s" unicode="&#xe05c;" horiz-adv-x="2150" 
d="M858 481h-512l-153 -151v-105l153 -149h176l336 330v75zM858 555v244l-151 149h-506v76h542l195 -193v-606l154 -149h712l154 149v101l-154 151h-309l-197 193v161l197 193h518v-76h-483l-152 -149v-99l152 -149h311l197 -193v-165l-197 -193h-786l-197 193v102
l-301 -295h-248l-196 193v169l196 193h549z" />
    <glyph glyph-name="a_t" unicode="&#xe05d;" horiz-adv-x="2060" 
d="M858 487h-512l-153 -151v-109l153 -151h174l338 336v75zM1968 0h-313l-201 201v747h-258v76h258v203l-338 336h-211l-151 -152v-397l184 -185v-829h-80v299l-301 -299h-248l-196 195v174l196 194h549v234l-153 151h-504v76h473v420l196 194h283l381 -378v-236h428v-76
h-428v-715l158 -157h276v-76z" />
    <glyph glyph-name="a_y" unicode="&#xe05e;" horiz-adv-x="2115" 
d="M858 475h-512l-153 -151v-97l153 -151h176l336 336v63zM1251 -410v76h203l148 352l-189 457h-475v-475h-80v299l-299 -299h-250l-196 197v159l196 195h549v246l-151 151h-506v76h542l195 -195v-278h442l-188 461l74 24l379 -917l376 917l74 -24l-588 -1422h-256z" />
    <glyph glyph-name="b_e" unicode="&#xe05f;" horiz-adv-x="2316" 
d="M942 227v570l-154 151h-176l-338 -336v-385l154 -151h360zM1491 571h510l153 152v74l-153 151h-356l-154 -151v-226zM1491 496v-269l154 -151h466v-76h-503l-197 195v301h-389v-301l-197 -195h-434l-196 195v1239h79v-709l301 299h250l197 -197v-256h389v256l197 197h430
l196 -197v-137l-196 -194h-547z" />
    <glyph glyph-name="c_a" unicode="&#xe060;" horiz-adv-x="2101" 
d="M1837 481h-512l-151 -151v-105l151 -149h176l336 330v75zM1917 0h-80v295l-299 -295h-250l-194 193v169l194 193h549v244l-151 149h-1280l-152 -149v-574l152 -149h440v-76h-475l-197 193v638l197 193h1349l197 -193v-831z" />
    <glyph glyph-name="c_e" unicode="&#xe061;" horiz-adv-x="2017" 
d="M1194 565h510l151 150v84l-151 149h-356l-154 -149v-234zM1194 489v-264l154 -149h464v-76h-1441l-197 193v638l197 193h460v-76h-425l-152 -149v-574l152 -149h829l-121 117v638l197 193h428l196 -193v-147l-196 -195h-545z" />
    <glyph glyph-name="c_h" unicode="&#xe062;" horiz-adv-x="2185" 
d="M1991 0h-80v797l-154 151h-174l-338 -336v-612h-874l-197 195v632l197 197h460v-76h-423l-154 -151v-570l154 -151h757v1358h80v-709l301 299h248l197 -197v-827z" />
    <glyph glyph-name="c_i" unicode="&#xe063;" horiz-adv-x="1503" 
d="M1298 0h-79v948h-816l-149 -151v-570l149 -151h435v-76h-471l-193 195v632l193 197h931v-1024zM1298 1208h-79v226h79v-226z" />
    <glyph glyph-name="c_o" unicode="&#xe064;" horiz-adv-x="2144" 
d="M1890 225v574l-151 149h-357l-153 -149v-574l153 -149h357zM831 1024v-76h-423l-154 -149v-574l154 -149h862l-121 117v638l197 193h428l196 -193v-638l-196 -193h-1403l-197 193v638l197 193h460z" />
    <glyph glyph-name="c_u" unicode="&#xe065;" horiz-adv-x="2183" 
d="M1978 0h-80v295l-301 -295h-247l-197 193v755h-745l-154 -149v-574l154 -149h438v-76h-475l-197 193v638l197 193h862v-799l153 -149h177l335 330v618h80v-1024z" />
    <glyph glyph-name="d_e" unicode="&#xe066;" horiz-adv-x="2295" 
d="M922 410v387l-154 151h-360l-154 -151v-570l154 -151h176zM1470 571h510l154 152v74l-154 151h-356l-154 -151v-226zM1470 496v-269l154 -151h467v-76h-504l-196 195v301h-390v-496h-79v299l-301 -299h-250l-197 195v632l197 197h434l117 -117v527h79v-863h390v256
l196 197h430l197 -197v-137l-197 -194h-547z" />
    <glyph glyph-name="d_i" unicode="&#xe067;" horiz-adv-x="1726" 
d="M913 410v387l-151 151h-356l-152 -151v-570l152 -151h174zM1522 0h-414l-195 195v104l-299 -299h-245l-195 195v632l195 197h430l114 -117v527h78v-1207l152 -151h299v948h80v-1024zM1522 1208h-80v226h80v-226z" />
    <glyph glyph-name="e_a" unicode="&#xe068;" horiz-adv-x="2297" 
d="M254 555h510l151 150v94l-151 149h-356l-154 -149v-244zM2034 485h-514l-152 -151v-109l152 -149h176l338 330v79zM2114 0h-80v295l-301 -295h-250l-195 193v65l-264 -258h-653l-197 193v638l197 193h430l194 -193v-157l-194 -193h-547v-256l154 -149h585l490 483h551
v240l-154 149h-504v76h541l197 -193v-831z" />
    <glyph glyph-name="e_c" unicode="&#xe069;" horiz-adv-x="2086" 
d="M254 565h508l153 150v84l-153 149h-356l-152 -149v-234zM1954 0h-477l-195 193v299h-1028v-267l152 -149h466v-76h-501l-197 193v638l197 193h428l196 -193v-147l-121 -119h408v266l195 193h460v-76h-424l-151 -149v-574l151 -149h441v-76z" />
    <glyph glyph-name="e_d" unicode="&#xe06a;" horiz-adv-x="2332" 
d="M254 571h510l151 152v74l-151 151h-356l-154 -151v-226zM2048 410v387l-154 151h-360l-152 -151v-570l152 -151h176zM2128 0h-80v299l-301 -299h-248l-196 195v96l-293 -291h-639l-197 195v632l197 197h430l194 -197v-137l-194 -194h-547v-269l154 -151h565l330 327v424
l196 197h432l117 -117v527h80v-1434z" />
    <glyph glyph-name="e_e" unicode="&#xe06b;" horiz-adv-x="2187" 
d="M254 565h510l151 150v84l-151 149h-356l-154 -149v-234zM1364 565h508l153 150v84l-153 149h-356l-152 -149v-234zM1364 492v-267l152 -149h466v-76h-503l-195 193v299h-1030v-267l154 -149h466v-76h-503l-197 193v638l197 193h430l194 -193v-147l-118 -119h407v266
l195 193h430l196 -193v-147l-196 -192h-545z" />
    <glyph glyph-name="e_l" unicode="&#xe06c;" horiz-adv-x="1689" 
d="M254 573h504l151 152v72l-151 151h-352l-152 -151v-224zM254 498v-271l152 -151h462v-76h-499l-195 195v634l195 195h358v420l195 194h245l195 -194v-1217l184 -186l-55 -55l-209 209v1216l-152 152h-174l-149 -152v-397l182 -185v-137l-194 -194h-541z" />
    <glyph glyph-name="e_m" unicode="&#xe06d;" horiz-adv-x="3059" 
d="M254 565h512l154 150v84l-154 149h-358l-154 -149v-234zM2865 0h-80v799l-153 149h-158l-340 -330v-618h-80v799l-153 149h-156l-340 -330v-618h-1034l-197 193v638l197 193h432l198 -193v-147l-198 -195h-549v-266l154 -149h917v950h80v-295l303 295h229l197 -193v-102
l303 295h232l196 -193v-831z" />
    <glyph glyph-name="e_n" unicode="&#xe06e;" horiz-adv-x="2340" 
d="M254 565h510l151 150v84l-151 149h-356l-154 -149v-234zM2146 0h-80v799l-153 149h-176l-336 -330v-618h-1030l-197 193v638l197 193h430l196 -193v-147l-196 -195h-547v-266l154 -149h913v950h80v-295l299 295h250l196 -193v-831z" />
    <glyph glyph-name="e_r" unicode="&#xe06f;" horiz-adv-x="1966" 
d="M254 565h508l151 150v84l-151 149h-356l-152 -149v-234zM1946 948h-232l-336 -330v-425l-196 -193h-811l-197 193v638l197 193h428l196 -193v-147l-196 -195h-545v-264l152 -149h739l151 149v799h82v-295l299 295h269v-76z" />
    <glyph glyph-name="e_s" unicode="&#xe070;" horiz-adv-x="2115" 
d="M254 565h508l153 150v84l-153 149h-354l-154 -149v-234zM254 489v-264l154 -149h1361l154 149v101l-154 151h-309l-196 193v161l196 193h518v-76h-481l-154 -149v-99l154 -149h309l197 -193v-165l-197 -193h-1435l-197 193v638l197 193h428l196 -193v-147l-196 -195h-545
z" />
    <glyph glyph-name="e_t" unicode="&#xe071;" horiz-adv-x="1988" 
d="M254 569h508l151 152v76l-151 151h-356l-152 -151v-228zM1896 0h-311l-203 201v747h-508l119 -119v-141l-194 -194h-545v-267l152 -151h466v-76h-501l-197 195v634l197 195h1011v279h80v-279h428v-76h-428v-715l158 -157h276v-76z" />
    <glyph glyph-name="f_o" unicode="&#xe072;" horiz-adv-x="1851" 
d="M1597 227v570l-151 151h-354l-154 -151v-570l154 -151h354zM356 948v-948h-80v948h-194v76h194v276l195 195h305v-76h-268l-152 -151v-244h1127l194 -195v-634l-194 -195h-428l-197 195v634l121 119h-623z" />
    <glyph glyph-name="g_e" unicode="&#xe073;" horiz-adv-x="2308" 
d="M922 268v346l-338 334h-176l-154 -151v-529l154 -151h360zM1483 541h510l153 151v105l-153 151h-357l-153 -151v-256zM1483 465v-238l153 -151h467v-76h-504l-196 197v268h-402v-680l-196 -195h-518v76h481l154 152v338l-117 -115h-434l-197 195v593l197 195h250
l301 -299v299h79v-483h402v288l196 195h431l196 -195v-170l-196 -194h-547z" />
    <glyph glyph-name="h_a" unicode="&#xe074;" horiz-adv-x="2349" 
d="M2085 485h-514l-152 -151v-107l152 -151h176l338 334v75zM2165 0h-80v299l-301 -299h-250l-195 195v172l195 194h551v236l-154 151h-1020l119 -121v-827h-80v797l-151 151h-176l-338 -336v-612h-80v1434h80v-709l301 299h1382l197 -197v-827z" />
    <glyph glyph-name="h_e" unicode="&#xe075;" horiz-adv-x="2326" 
d="M1501 571h510l154 152v74l-154 151h-356l-154 -151v-226zM1501 496v-269l154 -151h467v-76h-504l-197 195v301h-389v-496h-80v797l-153 151h-176l-338 -336v-612h-80v1434h80v-709l301 299h250l196 -197v-256h389v256l197 197h430l197 -197v-137l-197 -194h-547z" />
    <glyph glyph-name="h_i" unicode="&#xe076;" horiz-adv-x="1724" 
d="M944 0v797l-151 151h-175l-333 -336v-612h-80v1434h80v-709l297 299h247l193 -197v-751h266l152 151v797h80v-829l-195 -195h-381zM1520 1208h-80v226h80v-226z" />
    <glyph glyph-name="h_o" unicode="&#xe077;" horiz-adv-x="2406" 
d="M2152 227v570l-153 151h-357l-153 -151v-570l153 -151h357zM1409 477h-377v-477h-82v797l-151 151h-176l-338 -336v-612h-80v1434h80v-709l301 299h250l196 -197v-276h377v276l197 197h430l196 -197v-632l-196 -195h-430l-197 195v282z" />
    <glyph glyph-name="i_a" unicode="&#xe078;" horiz-adv-x="1628" 
d="M1364 485h-506l-151 -151v-107l151 -151h174l332 334v75zM1444 0h-80v299l-295 -299h-248l-192 195v172l192 194h543v236l-150 151h-929v-948h-80v1024h1044l195 -197v-827zM285 1208h-80v226h80v-226z" />
    <glyph glyph-name="i_c" unicode="&#xe079;" horiz-adv-x="1503" 
d="M285 0h-80v1024h80v-1024zM1370 0h-471l-192 195v634l182 185v213l-334 336h-121l-149 -152v-199h-80v232l192 194h195l375 -378v-236h387v-76h-418l-152 -151v-570l152 -151h434v-76z" />
    <glyph glyph-name="i_d" unicode="&#xe07a;" horiz-adv-x="1699" 
d="M1415 412v385l-149 151h-359l-149 -151v-570l149 -151h174zM285 0h-80v1024h80v-1024zM1495 0h-80v299l-297 -299h-246l-194 195v634l194 195h428l115 -115v318l-334 336h-647l-149 -152v-199h-80v232l194 194h719l377 -378v-1260z" />
    <glyph glyph-name="i_e" unicode="&#xe07b;" horiz-adv-x="1613" 
d="M797 571h503l152 152v74l-152 151h-352l-151 -151v-226zM797 496v-269l151 -151h463v-76h-498l-194 195v301h-434v-496h-80v1024h80v-453h434v256l194 197h424l195 -197v-137l-195 -194h-540zM285 1208h-80v226h80v-226z" />
    <glyph glyph-name="i_l" unicode="&#xe07c;" horiz-adv-x="1128" 
d="M283 0h-78v1024h78v-1024zM283 1212h-78v232l190 194h219l191 -194v-1217l180 -186l-55 -55l-203 209v1216l-147 152h-150l-147 -152v-199z" />
    <glyph glyph-name="i_n" unicode="&#xe07d;" horiz-adv-x="1746" 
d="M1552 0h-79v797l-152 151h-174l-334 -336v-612h-78v948h-450v-948h-80v1024h608v-299l299 299h246l194 -197v-827zM285 1208h-80v226h80v-226z" />
    <glyph glyph-name="i_o" unicode="&#xe07e;" horiz-adv-x="1689" 
d="M1436 227v570l-152 151h-352l-152 -151v-570l152 -151h352zM285 0h-80v1024h80v-1024zM285 1212h-80v232l194 194h189l377 -378v-236h356l195 -195v-634l-195 -195h-424l-195 195v634l183 185v213l-334 336h-115l-151 -152v-199z" />
    <glyph glyph-name="i_r" unicode="&#xe080;" horiz-adv-x="1380" 
d="M1360 948h-209l-332 -336v-612h-80v948h-454v-948h-80v1024h614v-299l295 299h246v-76zM285 1208h-80v226h80v-226z" />
    <glyph glyph-name="i_s" unicode="&#xe081;" horiz-adv-x="1495" 
d="M205 0v1024h80v-950h868l150 151v99l-150 151h-307l-193 195v157l193 197h512v-76h-475l-152 -151v-95l152 -151h305l194 -195v-161l-194 -195h-983zM285 1208h-80v226h80v-226z" />
    <glyph glyph-name="i_t" unicode="&#xe082;" horiz-adv-x="1445" 
d="M285 0h-80v1024h80v-1024zM1354 0h-310l-198 201v747h-293v76h293v203l-332 336h-80l-149 -152v-199h-80v232l192 194h152l377 -378v-236h422v-76h-422v-715l155 -157h273v-76z" />
    <glyph glyph-name="l_e" unicode="&#xe083;" horiz-adv-x="1726" 
d="M909 571h504l152 152v74l-152 151h-352l-152 -151v-226zM909 496v-269l152 -151h463v-76h-500l-195 195v301h-544v-269l184 -186l-55 -55l-209 209v1239h80v-863h544v256l195 197h426l195 -197v-137l-195 -194h-541z" />
    <glyph glyph-name="l_i" unicode="&#xe084;" horiz-adv-x="1124" 
d="M920 1145h-78v82l-324 336h-88l-147 -152v-1184l180 -186l-55 -55l-203 209v1249l188 194h160l367 -378v-115zM920 0h-78v1024h78v-1024z" />
    <glyph glyph-name="l_l" unicode="&#xe085;" horiz-adv-x="1247" 
d="M1104 41l-55 -55l-205 209v1216l-150 152h-262l-149 -152v-1184l182 -186l-55 -55l-205 209v1249l190 194h336l191 -194v-1217z" />
    <glyph glyph-name="l_o" unicode="&#xe086;" horiz-adv-x="1763" 
d="M1509 227v570l-151 151h-352l-152 -151v-570l152 -151h352zM1036 1024h359l194 -195v-634l-194 -195h-426l-195 195v634l182 185v213l-333 336h-187l-151 -152v-1184l184 -186l-55 -55l-209 209v1249l194 194h260l377 -378v-236z" />
    <glyph glyph-name="m_a" unicode="&#xe087;" horiz-adv-x="3102" 
d="M2839 481h-517l-153 -151v-105l153 -149h177l340 330v75zM2918 0h-79v295l-304 -295h-249l-199 193v169l199 193h553v244l-154 149h-1059l119 -117v-831h-80v799l-154 149h-155l-340 -330v-618h-80v799l-154 149h-157l-340 -330v-618h-80v1024h80v-295l303 295h231
l197 -193v-102l303 295h1403l196 -193v-831z" />
    <glyph glyph-name="m_e" unicode="&#xe088;" horiz-adv-x="3049" 
d="M2220 565h514l154 150v84l-154 149h-360l-154 -149v-234zM2220 489v-264l154 -149h471v-76h-508l-197 193v296h-393v-489h-82v799l-154 149h-155l-340 -330v-618h-80v799l-154 149h-157l-340 -330v-618h-80v1024h80v-295l303 295h231l197 -193v-102l303 295h229l199 -193
v-266h393v266l197 193h434l197 -193v-147l-197 -195h-551z" />
    <glyph glyph-name="m_i" unicode="&#xe089;" horiz-adv-x="2441" 
d="M2236 0h-579v797l-152 151h-155l-338 -336v-612h-80v797l-154 151h-155l-338 -336v-612h-80v1024h80v-299l301 299h229l197 -197v-102l301 299h229l197 -197v-751h418v948h79v-1024zM2236 1208h-79v226h79v-226z" />
    <glyph glyph-name="m_o" unicode="&#xe08a;" horiz-adv-x="3147" 
d="M2894 225v574l-154 149h-360l-154 -149v-574l154 -149h360zM2146 471h-399v-471h-82v799l-154 149h-155l-340 -330v-618h-80v799l-154 149h-157l-340 -330v-618h-80v1024h80v-295l303 295h231l197 -193v-102l303 295h229l199 -193v-286h399v286l197 193h434l197 -193
v-638l-197 -193h-434l-197 193v278z" />
    <glyph glyph-name="n_c" unicode="&#xe08b;" horiz-adv-x="2246" 
d="M2114 0h-478l-196 193v278h-410v-471h-80v799l-151 149h-176l-338 -330v-618h-80v1024h80v-295l301 295h248l196 -193v-286h410v286l196 193h461v-76h-424l-153 -149v-574l153 -149h441v-76z" />
    <glyph glyph-name="n_d" unicode="&#xe08c;" horiz-adv-x="2469" 
d="M2185 410v387l-153 151h-361l-153 -151v-570l153 -151h176zM2265 0h-80v299l-301 -299h-250l-196 195v280h-406v-475h-80v797l-153 151h-176l-338 -336v-612h-80v1024h80v-299l301 299h250l196 -197v-276h406v276l196 197h434l117 -117v527h80v-1434z" />
    <glyph glyph-name="n_e" unicode="&#xe08d;" horiz-adv-x="2344" 
d="M1520 565h510l153 150v84l-153 149h-357l-153 -149v-234zM1520 489v-264l153 -149h467v-76h-504l-196 193v296h-408v-489h-80v799l-153 149h-176l-338 -330v-618h-80v1024h80v-295l301 295h250l196 -193v-266h408v266l196 193h430l197 -193v-147l-197 -195h-546z" />
    <glyph glyph-name="n_g" unicode="&#xe08e;" horiz-adv-x="2443" 
d="M2159 270v340l-338 338h-176l-154 -153v-525l154 -153h360zM1524 -410v76h481l154 154v336l-117 -115h-434l-197 197v589l197 197h137l-526 539h-220l-151 -154v-397l184 -185v-827h-80v795l-153 153h-176l-338 -338v-610h-80v1024h80v-301l301 301h180v418l197 196h290
l906 -919v305h79v-1237l-196 -197h-518z" />
    <glyph glyph-name="n_i" unicode="&#xe08f;" horiz-adv-x="1714" 
d="M1509 0h-567v797l-149 151h-175l-333 -336v-612h-80v1024h80v-299l297 299h245l195 -197v-751h408v948h79v-1024zM1509 1208h-79v226h79v-226z" />
    <glyph glyph-name="n_o" unicode="&#xe090;" horiz-adv-x="2412" 
d="M2159 225v574l-154 149h-356l-154 -149v-574l154 -149h356zM1415 471h-383v-471h-80v799l-153 149h-176l-338 -330v-618h-80v1024h80v-295l301 295h250l196 -193v-286h383v286l197 193h430l196 -193v-638l-196 -193h-430l-197 193v278z" />
    <glyph glyph-name="n_s" unicode="&#xe091;" horiz-adv-x="2258" 
d="M950 0v799l-151 149h-176l-338 -330v-618h-80v1024h80v-295l301 295h250l194 -193v-755h883l153 149v101l-153 151h-309l-197 193v161l197 193h518v-76h-484l-151 -149v-99l151 -149h312l196 -193v-165l-196 -193h-1000z" />
    <glyph glyph-name="n_t" unicode="&#xe092;" horiz-adv-x="2148" 
d="M2056 0h-313l-201 201v747h-276v76h276v203l-338 336h-207l-151 -152v-397l184 -185v-829h-80v797l-153 151h-174l-338 -336v-612h-80v1024h80v-299l301 299h180v420l197 194h278l381 -378v-236h428v-76h-428v-715l158 -157h276v-76z" />
    <glyph glyph-name="o_f" unicode="&#xe093;" horiz-adv-x="1998" 
d="M915 227v570l-153 151h-356l-152 -151v-570l152 -151h356zM1968 1419h-270l-152 -151v-244h398v-76h-398v-948h-80v948h-592l121 -119v-634l-196 -195h-428l-197 195v634l197 195h1095v276l195 195h307v-76z" />
    <glyph glyph-name="o_l" unicode="&#xe094;" horiz-adv-x="1789" 
d="M911 227v570l-151 151h-354l-152 -151v-570l152 -151h354zM727 1024v420l195 194h344l194 -194v-1217l187 -186l-56 -55l-209 209v1216l-151 152h-273l-151 -152v-397l184 -185v-634l-196 -195h-426l-195 195v634l195 195h358z" />
    <glyph glyph-name="o_m" unicode="&#xe095;" horiz-adv-x="3153" 
d="M922 225v574l-154 149h-360l-154 -149v-574l154 -149h360zM2959 0h-80v799l-153 149h-158l-340 -330v-618h-80v799l-153 149h-158l-338 -330v-618h-82v436h-416v-243l-196 -193h-434l-197 193v638l197 193h434l196 -193v-319h416v512h82v-295l301 295h232l196 -193v-102
l303 295h232l196 -193v-831z" />
    <glyph glyph-name="o_n" unicode="&#xe096;" horiz-adv-x="2435" 
d="M918 225v574l-154 149h-356l-154 -149v-574l154 -149h356zM2241 0h-80v799l-154 149h-176l-338 -330v-618h-80v438h-416v-245l-196 -193h-430l-197 193v638l197 193h430l196 -193v-317h416v510h80v-295l301 295h250l197 -193v-831z" />
    <glyph glyph-name="o_r" unicode="&#xe097;" horiz-adv-x="2099" 
d="M915 225v574l-151 149h-356l-154 -149v-574l154 -149h356zM2079 948h-232l-338 -330v-618h-79v463h-435v-270l-196 -193h-428l-197 193v638l197 193h428l196 -193v-294h435v487h79v-295l301 295h269v-76z" />
    <glyph glyph-name="o_t" unicode="&#xe098;" horiz-adv-x="2091" 
d="M915 227v570l-153 151h-354l-154 -151v-570l154 -151h354zM1999 0h-313l-201 201v747h-277v76h277v203l-338 336h-184l-152 -152v-397l184 -185v-634l-196 -195h-428l-197 195v634l197 195h360v420l195 194h258l381 -378v-236h428v-76h-428v-715l157 -157h277v-76z" />
    <glyph glyph-name="o_u" unicode="&#xe099;" horiz-adv-x="2396" 
d="M918 227v570l-154 151h-356l-154 -151v-570l154 -151h356zM2191 0h-80v299l-301 -299h-249l-197 195v1032l-336 336h-63l-152 -152v-397l184 -185v-634l-196 -195h-430l-197 195v634l197 195h360v420l197 194h135l383 -378v-1033l151 -151h177l337 336v612h80v-1024z" />
    <glyph glyph-name="o_w" unicode="&#xe09a;" horiz-adv-x="2635" 
d="M920 225v574l-154 151h-358l-154 -151v-574l154 -149h358zM999 471v-278l-196 -193h-432l-197 193v638l197 193h432l196 -193v-286h414l-121 475l78 16l221 -870l303 858h68l303 -858l221 870l78 -16l-260 -1020h-66l-311 885l-309 -885h-66l-120 471h-433z" />
    <glyph glyph-name="p_e" unicode="&#xe09b;" horiz-adv-x="2330" 
d="M952 227v570l-153 151h-176l-338 -334v-387l153 -151h361zM1505 559h510l154 154v84l-154 151h-356l-154 -151v-238zM1505 485v-258l154 -151h467v-76h-504l-197 197v288h-393v-288l-196 -197h-435l-116 117v-527h-80v1434h80v-299l301 299h250l196 -195v-270h393v270
l197 195h430l197 -195v-149l-197 -195h-547z" />
    <glyph glyph-name="p_o" unicode="&#xe09c;" horiz-adv-x="2430" 
d="M950 227v570l-151 151h-176l-338 -334v-387l153 -151h361zM2177 227v570l-154 151h-356l-154 -151v-570l154 -151h356zM1434 465h-402v-268l-196 -197h-435l-116 117v-527h-80v1434h80v-299l301 299h250l196 -195v-288h402v288l196 195h430l197 -195v-632l-197 -197h-430
l-196 197v268z" />
    <glyph glyph-name="p_r" unicode="&#xe09d;" horiz-adv-x="2058" 
d="M950 229v566l-153 153h-174l-338 -338v-381l153 -153h359zM2038 948h-213l-336 -338v-610h-80v1225l-336 338h-76l-151 -154v-397l184 -185v-630l-196 -197h-433l-116 117v-527h-80v1434h80v-301l301 301h180v418l195 196h147l381 -381v-534l301 301h248v-76z" />
    <glyph glyph-name="r_a" unicode="&#xe09e;" horiz-adv-x="1906" 
d="M1642 481h-509l-152 -151v-105l152 -149h174l335 330v75zM1722 0h-80v295l-299 -295h-247l-195 193v169l195 193h546v244l-151 149h-870l-336 -330v-618h-80v1024h80v-295l299 295h944l194 -193v-831z" />
    <glyph glyph-name="r_e" unicode="&#xe09f;" horiz-adv-x="2199" 
d="M1376 565h508l154 150v84l-154 149h-356l-152 -149v-234zM1376 489v-264l152 -149h467v-76h-504l-195 193v296h-362v310l-152 149h-159l-338 -330v-618h-80v1024h80v-295l301 295h233l197 -193v-266h280v266l195 193h430l197 -193v-147l-197 -195h-545z" />
    <glyph glyph-name="r_t" unicode="&#xe102;" horiz-adv-x="1736" 
d="M1645 0h-312l-200 201v747h-515l-333 -334v-614h-80v1024h80v-297l297 297h551v279h79v-279h426v-76h-426v-715l158 -157h275v-76z" />
    <glyph glyph-name="s_a" unicode="&#xe103;" horiz-adv-x="2203" 
d="M1939 481h-512l-153 -151v-105l153 -149h177l335 330v75zM2019 0h-80v295l-301 -295h-247l-197 193v169l197 193h548v244l-153 149h-1395l-153 -149v-99l153 -149h309l197 -193v-165l-197 -193h-546v76h510l153 149v101l-153 151h-310l-196 193v161l196 193h1469
l196 -193v-831z" />
    <glyph glyph-name="s_e" unicode="&#xe104;" horiz-adv-x="2158" 
d="M1335 557h508l154 150v92l-154 149h-356l-152 -149v-242zM1335 483v-258l152 -149h467v-76h-502l-197 193v290h-479l121 -118v-172l-197 -193h-546v76h510l153 149v107l-153 151h-310l-196 193v155l196 193h518v-76h-481l-153 -149v-92l153 -150h864v274l197 193h428
l197 -193v-155l-197 -193h-545z" />
    <glyph glyph-name="s_i" unicode="&#xe105;" horiz-adv-x="1503" 
d="M1298 0h-79v948h-832l-149 -151v-88l149 -152h305l195 -195v-167l-195 -195h-538v76h503l150 151v103l-150 151h-307l-192 195v151l192 197h948v-1024zM1298 1208h-79v226h79v-226z" />
    <glyph glyph-name="s_s" unicode="&#xe106;" horiz-adv-x="2056" 
d="M1200 0v76h512l152 149v101l-152 151h-311l-197 193v161l121 117h-936l-151 -149v-99l151 -149h311l197 -193v-165l-197 -193h-546v76h510l151 149v101l-151 151h-310l-196 193v161l196 193h1565v-76h-481l-152 -149v-99l152 -149h309l197 -193v-165l-197 -193h-547z" />
    <glyph glyph-name="s_t" unicode="&#xe107;" horiz-adv-x="1900" 
d="M1808 0h-311l-203 201v747h-905l-151 -151v-90l151 -152h309l197 -193v-167l-197 -195h-544v76h510l151 151v103l-151 151h-312l-194 193v155l194 195h942v279h80v-279h428v-76h-428v-715l160 -157h274v-76z" />
    <glyph glyph-name="t_a" unicode="&#xe108;" horiz-adv-x="2072" 
d="M1808 485h-512l-153 -151v-107l153 -151h174l338 334v75zM1888 0h-80v297l-301 -297h-247l-197 195v172l197 192h548v238l-153 151h-1268v-715l158 -157h276v-76h-311l-203 201v747h-276v76h276v279h80v-279h1305l196 -195v-829z" />
    <glyph glyph-name="t_e" unicode="&#xe109;" horiz-adv-x="2076" 
d="M1253 569h508l154 152v76l-154 151h-356l-152 -151v-228zM1253 494v-267l152 -151h467v-76h-504l-194 195v256l-453 -451h-201l-203 201v747h-276v76h276v279h80v-279h469v-76h-469v-715l160 -157h129l488 483v270l194 195h430l197 -195v-141l-197 -194h-545z" />
    <glyph glyph-name="t_h" unicode="&#xe10a;" horiz-adv-x="2160" 
d="M1966 0h-80v797l-153 151h-177l-335 -336v-612h-711l-203 201v747h-276v76h276v283h80v-283h430v-76h-430v-715l160 -157h594v1358h80v-709l301 299h247l197 -197v-827z" />
    <glyph glyph-name="t_i" unicode="&#xe10b;" horiz-adv-x="1445" 
d="M1239 1165h-80v62l-332 336h-292l-152 -152v-387h424v-76h-424v-715l158 -157h272v-76h-309l-201 201v747h-272v76h272v420l195 194h366l375 -378v-95zM1241 0h-80v1024h80v-1024z" />
    <glyph glyph-name="t_o" unicode="&#xe10c;" horiz-adv-x="2119" 
d="M1866 227v570l-154 151h-356l-152 -151v-570l152 -151h356zM387 1024h430v-76h-430v-715l160 -157h276v-76h-313l-203 201v747h-276v76h276v420l197 194h504l381 -378v-236h360l197 -195v-634l-197 -195h-430l-195 195v634l185 185v213l-338 336h-430l-154 -152v-387z
" />
    <glyph glyph-name="t_r" unicode="&#xe10d;" horiz-adv-x="1808" 
d="M1788 948h-211l-338 -334v-614h-80v948h-772v-715l158 -157h276v-76h-313l-201 201v747h-276v76h276v279h80v-279h852v-297l301 297h248v-76z" />
    <glyph glyph-name="t_s" unicode="&#xe10e;" horiz-adv-x="1914" 
d="M307 948h-276v76h276v279h80v-279h428v-76h-428v-715l158 -157h1026l151 151v103l-151 151h-311l-195 193v155l195 195h518v-76h-482l-151 -151v-90l151 -152h310l196 -193v-167l-196 -195h-1098l-201 201v747z" />
    <glyph glyph-name="u_l" unicode="&#xe10f;" horiz-adv-x="1896" 
d="M1016 0h-80v299l-299 -299h-248l-194 195v829h79v-797l152 -151h174l336 336v1032l194 194h242l195 -194v-1217l186 -186l-55 -55l-211 209v1216l-152 152h-168l-151 -152v-1411z" />
    <glyph glyph-name="u_n" unicode="&#xe111;" horiz-adv-x="2502" 
d="M2308 0h-80v799l-153 149h-177l-337 -330v-618h-80v948h-459v-948h-80v295l-301 -295h-250l-196 193v831h79v-799l154 -149h176l338 330v618h619v-295l301 295h249l197 -193v-831z" />
    <glyph glyph-name="u_r" unicode="&#xe112;" horiz-adv-x="2136" 
d="M2116 948h-213l-336 -330v-618h-80v948h-467v-948h-80v295l-301 -295h-248l-196 193v831h79v-799l154 -149h174l338 330v618h627v-295l301 295h248v-76z" />
    <glyph glyph-name="u_s" unicode="&#xe113;" horiz-adv-x="2256" 
d="M940 0v295l-301 -295h-248l-196 193v831h79v-799l154 -149h176l336 330v618h80v-948h891l153 149v101l-153 151h-309l-197 193v161l197 193h518v-76h-484l-151 -149v-99l151 -149h312l196 -193v-165l-196 -193h-1008z" />
    <glyph glyph-name="u_t" unicode="&#xe114;" horiz-adv-x="2201" 
d="M2109 0h-313l-203 201v747h-305v76h305v203l-336 336h-83l-154 -152v-1411h-80v299l-301 -299h-248l-196 195v829h79v-797l154 -151h176l336 336v1032l197 194h157l381 -378v-236h428v-76h-428v-715l158 -157h276v-76z" />
    <glyph glyph-name="v_e" unicode="&#xe115;" horiz-adv-x="2078" 
d="M1255 565h508l154 150v84l-154 151h-356l-152 -151v-234zM1255 489v-264l152 -149h467v-76h-504l-194 193v296h-469l-205 -489h-60l-422 1012l74 24l377 -907l379 907l74 -24l-187 -447h439v266l194 193h430l197 -193v-147l-197 -195h-545z" />
    <glyph glyph-name="v_i" unicode="&#xe116;" horiz-adv-x="1488" 
d="M1284 0h-80v948h-319l-389 -948h-60l-416 1012l74 24l373 -905l367 893h450v-1024zM1284 1208h-80v226h80v-226z" />
    <glyph glyph-name="w_a" unicode="&#xe117;" horiz-adv-x="2545" 
d="M2281 481h-516l-151 -151v-105l151 -149h179l337 330v75zM2361 0h-80v295l-301 -295h-249l-199 193v169l199 193h550v244l-153 151h-803l-242 -950h-67l-309 885l-310 -885h-65l-260 1020l78 16l221 -870l303 858h67l303 -858l220 858h901l196 -193v-831z" />
    <glyph glyph-name="w_e" unicode="&#xe118;" horiz-adv-x="2529" 
d="M1702 565h512l153 150v84l-153 151h-359l-153 -151v-234zM1702 489v-264l153 -149h469v-76h-505l-197 193v296h-414l-125 -489h-65l-309 885l-312 -885h-65l-260 1020l78 16l221 -870l303 858h67l303 -858l222 870l77 -16l-114 -455h393v266l197 193h432l196 -193v-147
l-196 -195h-549z" />
    <glyph glyph-name="w_i" unicode="&#xe119;" horiz-adv-x="1966" 
d="M1761 0h-80v948h-364l-240 -948h-67l-308 883l-307 -883h-65l-258 1018l75 16l222 -866l301 856h67l301 -856l217 856h506v-1024zM1761 1208h-80v226h80v-226z" />
    <glyph glyph-name="ampersand.alt" unicode="&#xe11a;" horiz-adv-x="1712" 
d="M1210 471h-956v-244l152 -151h653l151 151v244zM254 547h506l151 151v99l-151 151h-354l-152 -151v-250zM1290 471v-276l-194 -195h-727l-195 195v632l195 197h428l194 -197v-159l-119 -121h338v659l-151 152h-430v76h467l194 -195v-692h150l151 151v265h80v-295
l-194 -197h-187z" />
    <glyph glyph-name="orn.001" unicode="&#xe11b;" horiz-adv-x="1081" 
d="M481 582l-166 -168l-49 49l166 168zM575 340h-69v242h69v-242zM938 545l-47 -51l-176 178h-348l-177 -178l-47 51l193 194h409zM815 463l-49 -49l-166 168l49 49zM481 987l-49 -49l-166 168l49 49zM938 1024l-193 -195h-409l-193 195l47 51l177 -178h348l176 178z
M575 987h-69v242h69v-242zM815 1106l-166 -168l-49 49l166 168z" />
    <glyph glyph-name="orn.002" unicode="&#xe11c;" horiz-adv-x="694" 
d="M418 537l-158 -166l-47 49l158 166zM371 610h-228v70h228v-70zM520 440l-184 -192l-47 47l166 176v348l-166 176l47 47l184 -192v-410zM418 754l-47 -49l-158 165l47 50z" />
    <glyph glyph-name="orn.003" unicode="&#xe11d;" horiz-adv-x="694" 
d="M481 420l-47 -49l-158 166l48 49zM406 295l-48 -47l-184 192v410l184 192l48 -47l-166 -176v-348zM551 610h-227v70h227v-70zM481 870l-157 -165l-48 49l158 166z" />
    <glyph glyph-name="orn.004" unicode="&#xe11e;" horiz-adv-x="970" 
d="M520 350h-69v318h69v-318zM430 690h-317v66h317v-66zM858 690h-317v66h317v-66zM520 778h-69v318h69v-318z" />
    <glyph glyph-name="uniF638" unicode="&#xf638;" horiz-adv-x="1226" 
d="M934 227v979l-39 41l-514 -1110l59 -61h346zM838 1305l-52 53h-346l-147 -152v-979l33 -34zM1012 195l-191 -195h-415l-191 195v1044l191 195h415l191 -195v-1044z" />
    <glyph glyph-name="zerooldstyle" unicode="&#xf730;" horiz-adv-x="1226" 
d="M932 801l-146 147h-346l-145 -147v-578l145 -147h346l146 147v578zM821 0h-415l-191 193v638l191 193h415l191 -193v-638z" />
    <glyph glyph-name="oneoldstyle" unicode="&#xf731;" horiz-adv-x="983" 
d="M133 0v76h340v872h-340v76h420v-948h338v-76h-758z" />
    <glyph glyph-name="twooldstyle" unicode="&#xf732;" horiz-adv-x="1159" 
d="M186 948v76h545l191 -193v-200l-629 -555h651v-76h-754l-32 61l684 601v139l-148 147h-508z" />
    <glyph glyph-name="threeoldstyle" unicode="&#xf733;" horiz-adv-x="1089" 
d="M143 -410v76h496l145 152v313l-145 152h-412v75h412l145 152v287l-145 151h-457v76h492l190 -195v-352l-153 -155l153 -158v-379l-190 -195h-531z" />
    <glyph glyph-name="fouroldstyle" unicode="&#xf734;" horiz-adv-x="1173" 
d="M829 0v-410h-79v410h-637v59l336 979l75 -28l-321 -934h547v409h79v-409h263v-76h-263z" />
    <glyph glyph-name="fiveoldstyle" unicode="&#xf735;" horiz-adv-x="1107" 
d="M184 -410v76h494l145 152v313l-145 152h-471v741h674v-76h-594v-590h426l190 -194v-379l-190 -195h-529z" />
    <glyph glyph-name="sixoldstyle" unicode="&#xf736;" horiz-adv-x="1191" 
d="M928 569l-146 152h-151l-326 -336v-158l146 -151h331l146 151v342zM903 1434v-76h-452l-146 -152v-706l289 297h223l191 -195v-407l-191 -195h-401l-191 195v1044l191 195h487z" />
    <glyph glyph-name="sevenoldstyle" unicode="&#xf737;" horiz-adv-x="952" 
d="M61 946v78h762l29 -55l-567 -1393l-72 29l545 1341h-697z" />
    <glyph glyph-name="eightoldstyle" unicode="&#xf738;" horiz-adv-x="1241" 
d="M936 553l-145 152h-340l-146 -152v-326l146 -151h340l145 151v326zM936 1206l-145 152h-340l-146 -152v-274l146 -152h340l145 152v274zM825 0h-409l-191 195v391l154 157l-154 156v340l191 195h409l191 -195v-340l-154 -156l154 -157v-391z" />
    <glyph glyph-name="nineoldstyle" unicode="&#xf739;" horiz-adv-x="1171" 
d="M866 797l-145 151h-332l-145 -151v-383l145 -150h152l325 332v201zM268 -410v76h453l145 152v665l-288 -295h-224l-190 195v446l190 195h402l190 -195v-1044l-190 -195h-488z" />
    <glyph glyph-name="apple" unicode="&#xf8ff;" horiz-adv-x="1822" 
d="M1649 696h-697v-696h-737v1434h1434v-738z" />
    </font>
</defs>
</svg>
