<?xml version="1.0" encoding="UTF-8"?>
<!-- Generator: Adobe Illustrator 21.0.0, SVG Export Plug-In . SVG Version: 6.00 Build 0)  -->
<svg version="1.1" id="Lager_1" xmlns="http://www.w3.org/2000/svg" xmlns:xlink="http://www.w3.org/1999/xlink" x="0px" y="0px" viewBox="0 0 325 355" style="enable-background:new 0 0 325 355;" xml:space="preserve">
<style type="text/css">
	.st0{fill-rule:evenodd;clip-rule:evenodd;fill:#E2BD98;}
	.st1{fill-rule:evenodd;clip-rule:evenodd;fill:#F9E0C5;}
	.st2{fill-rule:evenodd;clip-rule:evenodd;fill:#FE3048;}
</style>
<path class="st0" d="M170.2,339.3c69.4-57.7,140.9-219.4,148.3-305.9c0.7-8.2-5.2-14.9-14.7-17.2C211.8-5.6,74.8,17,13.2,55  c-5.5,3.4-8.8,9.3-8.5,15.3c3.5,62.9,48.9,196.2,107.8,261.4C127.6,348.3,154.6,352.3,170.2,339.3z"/>
<path class="st1" d="M167.2,319.7C228.2,269,291,126.9,297.5,50.9c0.6-7.2-4.6-13.1-13-15.1c-80.8-19.2-201.2,0.6-255.3,34  c-4.8,3-7.7,8.2-7.4,13.4c3,55.3,43,172.4,94.8,229.8C129.7,327.6,153.4,331.1,167.2,319.7z"/>
<path class="st2" d="M215.3,189.4v-3.6c-25,0-50.3,0-75.5,0c-5.7,0-25.6,1.5-29.1-0.6c-1.2-0.4-1.2-0.4-2.2-1  c-0.8-4-0.6-10.4-0.5-14.4c35.8,0,71.3,0,107.3,0v-28c-36,0-71.4,0-107.3,0c-0.1-3-1.1-11.3,0.5-13.9c0.4-1.2,0.6-0.9,1.1-1.9  c0.9-0.3,0.5-0.3,1.1-0.3c25.1,0,50.2,0,75.3,0c7.3,0,22.2,1,29.2-0.9v-3.4c0-6.9,3.2-13.2,7.9-17.6c0.1-0.2,0.3-0.5,0.4-0.7  c1.2-1.9,2.8-2.4,3.3-5.4c-27.4,0-54.9,0-82.3,0c-32.1,0-52.8-2.8-62.4,20.5c-3.3,8.1-1.6,22.7-1.6,33.4c0,24.2-2.4,44.4,11.8,54.8  c10.8,7.8,26.1,6.3,44.7,6.3c30,0,59.9,0,89.9,0c-0.3-1-1.1-3-1.9-4.4C219.2,203.9,215.3,197.1,215.3,189.4z"/>
</svg>