<?xml version="1.0" encoding="utf-8"?>
<!-- Generator: Adobe Illustrator 21.1.0, SVG Export Plug-In . SVG Version: 6.00 Build 0)  -->
<svg version="1.1" id="Lager_1" xmlns="http://www.w3.org/2000/svg" xmlns:xlink="http://www.w3.org/1999/xlink" x="0px" y="0px"
	 viewBox="0 0 146.8 115.2" style="enable-background:new 0 0 146.8 115.2;" xml:space="preserve">
<style type="text/css">
	.st0{display:none;fill:#E2BD98;}
	.st1{display:none;fill:#F9E0C5;}
	.st2{fill:#FE3048;}
</style>
<path class="st0" d="M90.1,241.7C159.5,184,231,22.3,238.4-64.2c0.7-8.2-5.2-14.9-14.7-17.2c-92-21.8-229,0.8-290.6,38.8
	c-5.5,3.4-8.8,9.3-8.5,15.3c3.5,62.9,48.9,196.2,107.8,261.4C47.5,250.7,74.5,254.7,90.1,241.7z"/>
<path class="st1" d="M87.1,222.1c61-50.7,123.8-192.8,130.3-268.8c0.6-7.2-4.6-13.1-13-15.1C123.6-81,3.2-61.2-50.9-27.8
	c-4.8,3-7.7,8.2-7.4,13.4c3,55.3,43,172.4,94.8,229.8C49.6,230,73.3,233.5,87.1,222.1z"/>
<path class="st2" d="M135.2,91.8v-3.6c-25,0-50.3,0-75.5,0c-5.7,0-25.6,1.5-29.1-0.6c-1.2-0.4-1.2-0.4-2.2-1
	c-0.8-4-0.6-10.4-0.5-14.4c35.8,0,71.3,0,107.3,0v-28c-36,0-71.4,0-107.3,0c-0.1-3-1.1-11.3,0.5-13.9c0.4-1.2,0.6-0.9,1.1-1.9
	c0.9-0.3,0.5-0.3,1.1-0.3c25.1,0,50.2,0,75.3,0c7.3,0,22.2,1,29.2-0.9v-3.4c0-6.9,3.2-13.2,7.9-17.6c0.1-0.2,0.3-0.5,0.4-0.7
	c1.2-1.9,2.8-2.4,3.3-5.4c-27.4,0-54.9,0-82.3,0C32.3,0.1,11.6-2.7,2,20.6C-1.3,28.7,0.4,43.3,0.4,54c0,24.2-2.4,44.4,11.8,54.8
	c10.8,7.8,26.1,6.3,44.7,6.3c30,0,59.9,0,89.9,0c-0.3-1-1.1-3-1.9-4.4C139.1,106.3,135.2,99.5,135.2,91.8z"/>
</svg>
